<?xml version="1.0" standalone="no"?>
<!DOCTYPE svg PUBLIC "-//W3C//DTD SVG 20010904//EN"
 "http://www.w3.org/TR/2001/REC-SVG-20010904/DTD/svg10.dtd">
<svg version="1.0" xmlns="http://www.w3.org/2000/svg"
 width="1024.000000pt" height="1024.000000pt" viewBox="0 0 1024.000000 1024.000000"
 preserveAspectRatio="xMidYMid meet">
<metadata>
Created by potrace 1.14, written by Peter Selinger 2001-2017
</metadata>
<g transform="translate(0.000000,1024.000000) scale(0.100000,-0.100000)"
fill="#000000" stroke="none">
<path d="M4976 9624 c-3 -7 4 -21 14 -32 14 -15 16 -22 7 -25 -9 -4 -9 -6 1
-6 6 -1 12 -8 12 -17 0 -8 5 -12 10 -9 6 3 10 -3 10 -14 0 -12 6 -21 13 -21 8
0 7 -4 -3 -10 -10 -6 -11 -10 -2 -10 6 0 12 -7 12 -15 0 -8 5 -15 10 -15 6 0
10 -9 10 -19 0 -11 6 -22 13 -24 9 -4 9 -6 -1 -6 -10 -1 -10 -4 0 -15 7 -8 16
-12 19 -10 4 2 6 -4 5 -14 0 -9 4 -16 10 -15 6 1 11 -4 11 -12 0 -8 -4 -12 -9
-9 -5 4 -4 -3 4 -15 7 -12 16 -21 20 -21 5 0 8 -12 8 -26 0 -14 4 -23 8 -20 5
3 9 0 9 -7 1 -21 8 -42 16 -48 4 -3 9 -15 10 -27 0 -11 5 -18 9 -16 4 3 9 -3
10 -13 0 -10 2 -23 2 -30 1 -6 5 -15 10 -20 5 -5 6 -2 1 6 -5 9 -4 12 3 8 5
-4 8 -17 4 -29 -3 -11 -1 -19 4 -16 5 4 10 -5 11 -19 0 -14 5 -28 10 -32 4 -3
8 -12 9 -18 3 -35 4 -38 14 -23 7 10 10 11 10 2 0 -7 -7 -15 -15 -18 -8 -3
-14 -18 -14 -32 -1 -58 -5 -69 -23 -64 -11 2 -18 -1 -18 -9 -1 -9 -4 -8 -11 4
-6 9 -14 15 -19 12 -5 -3 -7 3 -5 14 3 15 -1 19 -17 16 -17 -4 -18 -2 -6 12 8
10 8 14 1 10 -6 -4 -14 -3 -18 3 -4 6 -11 8 -16 5 -5 -3 -6 1 -3 10 5 11 2 14
-12 8 -12 -4 -15 -3 -10 5 4 7 1 12 -9 12 -9 0 -23 7 -31 15 -9 8 -24 15 -35
15 -11 0 -18 4 -14 9 3 5 0 13 -6 17 -7 4 -9 3 -5 -4 3 -6 2 -13 -3 -17 -5 -3
-13 0 -18 7 -4 7 -14 13 -20 14 -7 1 -22 2 -34 3 -11 0 -17 5 -14 11 3 6 -1 7
-9 4 -10 -4 -16 -1 -16 7 0 11 -3 11 -10 -1 -8 -12 -10 -12 -10 5 0 17 -2 17
-10 5 -9 -14 -14 -7 -11 13 1 5 -8 5 -20 2 -16 -5 -19 -4 -14 6 6 9 3 11 -8 6
-12 -4 -17 -1 -18 11 -1 11 -4 8 -9 -8 -5 -16 -8 -19 -9 -8 -1 12 -8 16 -23
13 -12 -3 -26 1 -30 8 -6 9 -8 8 -8 -3 0 -11 -11 -15 -45 -13 -25 0 -43 -3
-40 -7 9 -14 -6 -40 -24 -41 -10 0 -11 -2 -4 -6 9 -3 10 -10 3 -22 -5 -10 -11
-38 -12 -62 -2 -24 -8 -50 -12 -58 -6 -10 -5 -12 2 -7 8 5 12 -4 13 -26 2 -40
5 -70 9 -80 6 -19 6 -34 -3 -45 -6 -9 -6 -13 2 -13 6 0 10 -3 10 -7 -5 -32 3
-93 11 -88 14 9 13 -8 -2 -23 -9 -9 -9 -12 2 -12 7 0 10 -3 7 -7 -4 -3 -2 -12
4 -20 9 -10 8 -13 0 -13 -7 0 -9 -5 -6 -10 4 -6 10 -8 14 -6 4 3 8 -1 8 -9 0
-8 -5 -11 -11 -8 -6 4 -5 -1 3 -10 11 -14 11 -17 0 -18 -8 -1 -3 -5 11 -9 19
-6 20 -8 6 -9 -14 -1 -16 -4 -7 -14 6 -8 8 -17 4 -20 -3 -4 -2 -7 4 -7 6 0 13
-11 15 -25 3 -13 2 -22 -3 -20 -4 3 -10 -1 -12 -7 -3 -8 -6 -6 -6 4 -1 11 -6
15 -15 12 -8 -3 -19 4 -26 16 -6 12 -14 19 -17 16 -4 -3 -12 -1 -20 5 -7 6
-13 8 -13 3 0 -5 -7 2 -16 14 -13 19 -19 21 -30 11 -9 -7 -14 -8 -13 -3 3 19
-1 34 -12 34 -5 0 -7 -6 -4 -12 4 -7 0 -5 -8 4 -8 10 -17 15 -20 11 -4 -3 -7
-2 -7 4 0 13 -49 23 -56 11 -3 -4 -10 -6 -15 -2 -5 3 -17 0 -25 -7 -12 -10
-13 -9 -9 3 4 9 0 15 -9 15 -8 0 -13 -4 -10 -9 3 -4 0 -8 -5 -8 -6 0 -11 6
-11 13 0 8 -4 7 -10 -3 -7 -11 -10 -11 -10 -2 0 7 -4 10 -10 7 -6 -3 -10 4
-10 17 0 18 -2 20 -10 8 -8 -13 -10 -13 -10 1 0 9 -7 20 -16 23 -8 3 -12 10
-9 16 3 5 1 10 -4 10 -6 0 -11 7 -11 16 0 10 -6 14 -15 10 -8 -3 -15 -1 -15 4
0 6 4 10 9 10 4 0 8 10 7 23 -1 12 3 25 9 29 6 5 5 8 -3 8 -10 0 -9 4 3 16 12
12 13 19 4 30 -9 11 -9 14 1 14 9 0 9 4 -1 17 -8 9 -9 14 -3 10 16 -10 28 25
12 35 -9 5 -9 8 -1 8 7 0 10 10 7 24 -2 14 1 28 7 32 8 5 9 3 4 -6 -6 -10 -4
-12 8 -7 10 4 17 2 17 -5 0 -7 5 -6 15 2 11 9 15 9 15 1 0 -7 5 -9 10 -6 6 4
8 10 5 15 -3 5 5 7 17 5 22 -4 22 -4 4 10 -18 14 -18 15 -2 15 13 0 17 7 14
24 -1 13 4 31 12 42 8 10 10 15 4 11 -7 -4 -14 0 -18 8 -3 8 0 17 6 21 7 5 8
2 3 -6 -5 -9 -4 -11 3 -6 15 9 15 9 -8 36 -13 14 -27 21 -39 17 -20 -5 -46 14
-35 26 4 4 -2 5 -13 3 -12 -3 -20 1 -20 10 0 8 5 14 10 14 6 0 7 3 4 6 -4 4
-13 1 -22 -6 -12 -10 -15 -10 -15 1 0 9 -3 10 -8 3 -11 -16 -50 -24 -56 -10
-3 7 -10 4 -20 -8 -16 -20 -16 -20 -16 0 0 16 -2 17 -10 4 -9 -13 -14 -7 -11
13 0 4 -4 7 -9 7 -6 0 -10 -6 -11 -12 0 -7 -5 -3 -11 10 -6 12 -15 22 -21 22
-5 0 -4 7 3 15 12 14 7 20 -14 16 -6 -1 -6 3 0 11 5 7 8 27 6 43 -1 17 -3 38
-4 48 -1 9 -6 17 -11 17 -5 0 -7 7 -3 15 3 9 0 15 -10 15 -8 0 -13 4 -10 9 3
5 -9 16 -27 24 -19 10 -33 12 -36 6 -1 -6 -10 -2 -18 8 -8 10 -12 12 -8 6 3
-7 1 -13 -4 -13 -6 0 -11 4 -11 8 0 5 -6 9 -12 10 -23 2 -43 7 -57 16 -11 7
-12 6 -6 -5 7 -11 6 -12 -6 -2 -13 11 -18 8 -29 -13 -8 -14 -22 -30 -32 -35
-10 -6 -16 -14 -13 -20 4 -5 1 -9 -5 -9 -8 0 -7 -6 1 -21 9 -17 8 -20 -2 -14
-9 6 -11 3 -6 -8 4 -10 1 -17 -6 -17 -8 0 -6 -4 3 -10 13 -8 8 -14 -11 -12 -3
1 -5 -10 -4 -23 2 -13 -3 -26 -12 -29 -8 -3 -12 -10 -8 -15 3 -6 -1 -13 -9
-18 -8 -4 -15 -12 -15 -18 -1 -5 -5 -10 -10 -10 -5 0 -13 -3 -17 -7 -4 -5 -2
-8 5 -8 7 0 9 -5 6 -10 -4 -6 -10 -8 -15 -5 -13 8 -8 -39 5 -47 6 -5 6 -8 -3
-8 -10 0 -9 -7 3 -29 11 -23 12 -31 2 -34 -9 -4 -9 -6 1 -6 7 -1 12 -15 12
-33 0 -25 3 -29 10 -18 8 12 10 11 10 -6 0 -14 8 -24 22 -27 19 -5 20 -8 7
-23 -8 -10 -9 -15 -4 -13 14 8 42 -24 39 -45 -2 -12 2 -16 12 -12 9 3 12 1 9
-4 -3 -6 -1 -10 4 -10 6 0 10 -3 10 -7 -4 -22 4 -28 31 -27 17 0 33 4 38 9 4
5 0 5 -8 0 -12 -7 -13 -6 -2 6 11 12 14 12 22 -1 9 -13 10 -13 10 0 0 12 10
16 38 15 66 -2 72 -4 72 -25 0 -11 6 -20 13 -20 8 0 22 -10 33 -22 19 -22 19
-22 -1 -8 -19 15 -19 15 0 -11 11 -15 23 -25 27 -23 4 3 5 -8 2 -22 -5 -25 -3
-26 13 -13 16 12 16 11 -1 -9 -19 -22 -32 -30 -22 -13 3 5 -1 12 -10 15 -10 4
-13 2 -8 -6 5 -8 2 -9 -9 -5 -10 4 -17 2 -17 -5 0 -6 -9 -3 -20 7 -16 14 -21
15 -25 4 -6 -15 -72 -18 -94 -4 -9 5 -12 4 -8 -2 4 -6 0 -14 -9 -17 -8 -3 -12
-2 -9 4 3 6 1 10 -4 10 -6 0 -11 -6 -11 -12 0 -9 -4 -8 -10 2 -6 10 -10 11
-10 3 0 -7 -5 -13 -11 -13 -5 0 -7 5 -3 11 5 8 1 8 -14 0 -27 -15 -30 -14 -35
7 -4 16 -5 16 -6 -1 0 -10 -5 -16 -10 -12 -5 3 -12 1 -16 -4 -3 -6 -12 -8 -20
-4 -9 3 -15 -1 -15 -8 0 -11 -2 -11 -10 1 -7 12 -12 12 -22 2 -15 -15 -32 -16
-22 0 4 7 3 8 -4 4 -7 -4 -12 -15 -12 -24 0 -14 -2 -13 -13 3 -11 14 -16 15
-22 5 -6 -9 -4 -11 5 -5 9 5 11 4 6 -4 -6 -9 -11 -9 -21 -1 -10 8 -15 8 -20 0
-5 -8 -10 -8 -20 0 -10 8 -15 8 -21 -1 -5 -8 -3 -9 6 -4 9 6 11 4 5 -4 -5 -9
-11 -9 -17 -3 -6 6 -17 8 -25 5 -7 -3 -23 3 -35 13 -12 11 -18 14 -15 7 4 -6
3 -14 -3 -18 -5 -3 -10 -1 -10 4 0 6 -9 11 -21 11 -13 0 -18 4 -13 12 5 7 3 8
-7 2 -20 -12 -39 -14 -39 -2 0 5 -8 2 -17 -8 -14 -13 -18 -14 -22 -3 -2 8 -13
22 -24 32 -22 19 -31 22 -22 8 3 -5 1 -12 -5 -16 -5 -3 -10 -1 -10 4 0 6 -4
11 -10 11 -5 0 -7 -7 -4 -15 4 -9 1 -15 -7 -15 -8 0 -5 -6 7 -15 10 -8 15 -15
10 -15 -5 0 -3 -7 4 -16 11 -12 11 -15 -1 -12 -8 2 -13 -3 -11 -11 3 -12 0
-12 -12 -1 -14 10 -16 10 -16 -6 0 -15 -2 -16 -9 -5 -5 8 -18 12 -29 9 -10 -3
-27 -1 -37 5 -15 8 -17 7 -11 -9 7 -17 6 -17 -14 1 -19 18 -20 18 -20 0 0 -18
-1 -18 -16 1 -8 10 -13 13 -9 7 8 -16 -7 -17 -23 -1 -9 9 -12 8 -12 -7 0 -18
0 -18 -15 1 -9 10 -14 13 -13 5 2 -7 -3 -16 -11 -19 -10 -3 -11 0 -5 9 7 12 5
12 -9 1 -9 -8 -20 -11 -25 -9 -4 3 -14 2 -22 -3 -7 -4 -24 -4 -36 0 -18 7 -22
6 -17 -6 3 -8 2 -14 -3 -13 -27 5 -46 -2 -41 -15 4 -11 -1 -13 -18 -10 -20 3
-23 1 -18 -12 4 -12 3 -15 -6 -10 -6 4 -18 3 -25 -3 -10 -8 -13 -3 -13 24 0
19 5 35 10 35 5 0 4 7 -3 15 -7 9 -8 15 -2 15 16 0 8 31 -11 42 -13 7 -15 14
-8 26 7 13 4 20 -12 30 -20 12 -20 13 -2 8 17 -5 17 -4 -4 12 -14 11 -21 24
-17 31 4 6 4 11 -1 10 -4 -1 -15 -1 -23 0 -13 1 -13 2 0 11 9 6 10 10 3 10 -6
0 -14 14 -18 30 -4 18 -11 27 -18 23 -7 -4 -8 0 -4 11 4 10 3 15 -3 11 -6 -3
-10 -1 -10 5 0 7 -7 9 -16 6 -8 -3 -12 -2 -9 4 3 6 -1 10 -10 10 -9 0 -13 4
-10 10 4 6 -1 7 -11 3 -10 -4 -15 -2 -11 3 4 6 -6 9 -24 6 -19 -3 -29 0 -29 8
0 10 -3 10 -15 0 -10 -9 -15 -9 -15 -1 0 6 -7 11 -15 11 -8 0 -15 6 -15 13 0
8 -4 7 -10 -3 -7 -11 -10 -11 -10 -2 0 7 -5 10 -10 7 -6 -4 -9 -1 -8 6 2 7 -3
14 -9 15 -7 1 -18 2 -24 3 -5 0 -7 6 -3 13 5 8 2 9 -9 5 -12 -4 -17 -1 -18 11
0 9 -3 12 -5 5 -3 -7 -14 -2 -30 14 -14 14 -30 23 -37 20 -15 -6 -38 18 -29
29 4 5 -1 2 -11 -5 -15 -12 -17 -12 -11 4 6 15 4 16 -16 5 -12 -7 -20 -8 -16
-2 3 5 -1 13 -10 16 -8 3 -12 2 -9 -4 3 -6 1 -10 -6 -10 -7 0 -4 -7 7 -16 10
-8 14 -13 7 -10 -6 4 -15 1 -19 -5 -4 -8 -3 -9 4 -5 7 4 28 -10 48 -31 21 -21
42 -37 47 -35 5 2 7 -5 3 -14 -4 -12 -2 -15 9 -10 8 3 15 1 15 -5 0 -6 6 -7
13 -3 9 6 9 4 -1 -8 -11 -14 -11 -16 0 -14 7 1 20 6 28 10 8 5 12 6 8 2 -4 -5
-1 -14 5 -21 9 -10 15 -10 26 -1 11 8 13 8 8 -1 -4 -6 -3 -14 3 -18 5 -3 10
-1 10 5 0 6 5 8 10 5 6 -4 7 -11 4 -17 -5 -7 -2 -8 6 -3 7 4 16 2 21 -6 7 -12
9 -12 9 0 0 9 5 7 18 -6 9 -10 13 -13 8 -6 -6 10 -4 12 8 7 9 -3 16 -11 16
-17 0 -6 3 -8 6 -4 4 3 20 -1 36 -9 16 -8 34 -12 40 -8 7 4 8 3 4 -4 -4 -7 -2
-12 3 -12 6 0 11 -9 11 -20 0 -11 5 -20 11 -20 5 0 7 -4 4 -10 -3 -6 1 -7 9
-4 12 4 16 0 16 -16 0 -14 8 -24 21 -27 16 -4 17 -8 7 -14 -10 -7 -10 -9 0 -9
10 0 10 -5 2 -20 -6 -11 -18 -20 -26 -20 -9 0 -12 5 -8 13 5 7 0 6 -11 -3 -10
-8 -16 -10 -12 -4 8 13 -24 54 -42 54 -7 0 -9 5 -6 10 4 6 -5 10 -21 10 -21 0
-24 3 -16 13 9 10 5 13 -16 13 -21 -1 -26 3 -24 19 2 15 1 17 -6 6 -11 -16
-36 -5 -26 11 4 6 2 8 -4 4 -6 -3 -14 -1 -17 5 -4 5 -14 8 -22 5 -8 -3 -12 -2
-9 3 9 14 -20 21 -34 8 -10 -9 -11 -9 -5 2 6 11 4 13 -9 8 -13 -5 -17 -3 -13
6 4 10 -4 12 -29 11 -19 -2 -34 1 -34 6 0 5 -6 7 -14 4 -9 -3 -17 3 -21 15 -3
12 -11 21 -16 21 -6 0 -8 -4 -4 -9 3 -5 0 -13 -6 -17 -8 -4 -9 -3 -5 5 4 6 0
14 -8 17 -9 3 -13 10 -10 15 3 5 -4 9 -15 9 -12 0 -21 5 -21 10 0 6 -7 10 -16
10 -8 0 -12 5 -9 10 6 9 -8 14 -27 11 -5 0 -8 4 -8 10 0 5 -4 8 -9 5 -5 -3
-11 0 -14 8 -6 16 -47 10 -47 -6 0 -5 -4 -7 -10 -3 -12 7 -51 -31 -42 -41 4
-4 0 -5 -9 -1 -17 5 -40 -15 -52 -47 -4 -9 -11 -14 -17 -11 -6 4 -7 -1 -3 -11
4 -11 3 -15 -5 -10 -10 6 -28 -30 -24 -48 2 -5 -5 -5 -15 -2 -9 4 -14 4 -10 0
4 -4 1 -14 -6 -22 -8 -11 -8 -14 0 -9 6 4 14 3 18 -3 3 -5 0 -10 -7 -10 -7 -1
-2 -7 12 -15 14 -8 19 -14 11 -15 -9 0 0 -13 20 -31 19 -18 27 -29 19 -25 -9
5 -9 2 2 -7 10 -8 15 -17 11 -20 -3 -4 1 -7 10 -7 11 0 15 -7 12 -20 -2 -13 4
-25 16 -33 10 -6 19 -20 19 -29 0 -10 5 -18 11 -18 5 0 7 -4 4 -10 -3 -5 -1
-10 5 -10 6 0 8 -4 5 -10 -3 -5 -1 -10 6 -10 6 0 9 -8 6 -20 -3 -11 -1 -18 4
-14 5 3 9 -2 9 -10 0 -9 7 -16 15 -16 8 0 15 -5 15 -11 0 -5 -4 -7 -10 -4 -17
10 -11 -4 10 -27 10 -12 17 -26 13 -31 -3 -6 -1 -7 5 -3 6 3 18 -1 26 -10 12
-12 16 -12 17 -2 0 7 5 3 11 -9 6 -13 17 -23 25 -23 8 0 11 -4 8 -10 -3 -5 2
-10 12 -10 10 0 25 -9 33 -20 10 -14 16 -16 22 -7 6 9 8 9 8 0 0 -7 5 -13 11
-13 5 0 8 4 5 8 -3 5 1 9 9 9 8 0 12 -3 10 -7 -2 -3 5 -6 15 -6 10 0 16 4 14
8 -3 4 0 8 5 8 6 0 11 -4 11 -10 0 -5 5 -10 11 -10 5 0 7 5 3 12 -5 7 -3 8 5
4 7 -5 10 -10 7 -13 -7 -7 17 -32 26 -27 4 3 5 -4 3 -15 -2 -14 1 -18 11 -14
8 3 14 -1 14 -11 0 -9 7 -16 16 -16 8 0 12 -4 9 -10 -3 -5 2 -10 11 -10 10 0
15 -3 11 -6 -11 -11 17 -33 30 -22 8 7 10 3 6 -14 -3 -14 -2 -19 4 -11 6 8 13
3 22 -19 10 -22 16 -27 22 -17 7 11 9 10 9 -4 0 -11 4 -15 12 -11 7 4 8 3 4
-5 -4 -6 0 -14 8 -17 9 -3 16 -13 16 -21 0 -13 2 -13 17 -2 11 10 14 10 9 2
-4 -8 -2 -13 4 -13 6 0 8 -4 5 -10 -3 -5 1 -10 9 -10 9 0 16 -4 16 -10 0 -5
13 -22 28 -37 15 -16 33 -41 40 -56 6 -15 19 -30 27 -33 8 -4 12 -10 9 -15 -3
-5 0 -9 6 -9 6 0 8 -4 5 -10 -3 -5 1 -10 10 -10 9 0 13 -4 10 -10 -3 -5 1 -10
11 -10 12 0 14 -3 6 -13 -9 -10 -6 -17 8 -27 11 -8 20 -23 20 -33 0 -10 4 -16
9 -13 14 9 21 -20 8 -34 -9 -10 -9 -11 2 -5 11 6 13 4 8 -8 -3 -9 -1 -18 6
-21 9 -3 9 -5 0 -5 -7 -1 -10 -8 -7 -16 4 -8 10 -12 15 -9 5 3 6 -2 3 -10 -3
-9 -10 -16 -16 -16 -5 0 -6 -6 -2 -12 6 -10 4 -10 -8 0 -12 9 -17 10 -20 1 -3
-8 -17 -5 -45 9 -22 12 -44 18 -48 14 -3 -4 -5 0 -3 8 1 8 -3 14 -9 12 -7 -1
-13 2 -13 8 0 5 -7 10 -16 10 -8 0 -13 4 -9 10 3 5 -13 14 -35 21 -22 7 -40
16 -40 21 0 5 -4 6 -10 3 -5 -3 -10 -1 -10 6 0 6 -8 9 -20 6 -11 -3 -18 -2
-15 3 3 4 -2 11 -11 14 -10 4 -13 2 -8 -6 4 -7 3 -8 -4 -4 -7 4 -12 15 -12 24
-1 15 -2 15 -11 -1 -11 -18 -29 -14 -29 6 0 7 4 6 11 -3 7 -10 9 -11 7 -2 -2
8 -6 12 -10 10 -3 -2 -15 5 -25 14 -15 14 -22 15 -33 5 -10 -10 -12 -9 -7 4 3
9 0 16 -9 16 -7 0 -11 -4 -8 -9 3 -4 -2 -5 -10 -2 -9 3 -13 11 -9 18 4 6 -1 5
-10 -3 -11 -8 -17 -9 -17 -3 0 7 -7 9 -17 5 -9 -4 -14 -2 -10 3 3 5 -3 10 -13
10 -15 0 -17 -3 -7 -16 6 -8 -1 -4 -16 10 -24 21 -30 22 -37 10 -8 -13 -10
-13 -10 -1 0 8 -3 11 -7 8 -3 -4 -12 1 -20 11 -13 16 -14 16 -9 0 3 -12 1 -15
-10 -11 -7 3 -14 9 -14 14 0 5 -14 7 -30 5 -21 -2 -30 1 -30 11 0 9 -5 11 -13
6 -18 -11 -38 -13 -31 -2 11 18 -5 8 -33 -20 -16 -15 -27 -34 -25 -41 3 -7 0
-10 -5 -7 -5 3 -15 -3 -22 -15 -10 -16 -10 -19 1 -13 7 3 5 0 -4 -7 -10 -9
-14 -19 -8 -28 4 -7 6 -20 2 -28 -3 -10 -1 -13 6 -8 7 4 12 1 12 -8 0 -9 5
-16 10 -16 6 0 10 -15 10 -32 0 -25 3 -29 10 -18 8 12 10 11 10 -7 0 -12 6
-24 13 -26 9 -4 9 -6 -1 -6 -8 -1 -6 -8 8 -23 11 -12 19 -27 18 -32 -3 -15 25
-76 34 -76 5 0 8 -8 8 -17 0 -9 12 -30 28 -46 15 -17 21 -27 15 -23 -7 4 -13
2 -13 -3 0 -6 7 -11 15 -11 8 0 15 -7 15 -15 0 -8 5 -15 11 -15 6 0 9 -7 5
-15 -3 -9 0 -15 9 -15 8 0 16 -4 16 -10 1 -5 2 -16 3 -22 1 -7 10 -12 21 -10
15 2 17 1 6 -6 -16 -11 -6 -32 15 -32 8 0 13 -3 12 -7 -4 -11 77 -93 90 -93 6
0 14 -4 17 -10 3 -6 -1 -7 -12 -4 -17 5 -17 5 0 -6 9 -6 22 -8 28 -5 6 4 17
-1 25 -11 9 -11 13 -13 9 -4 -4 8 1 6 9 -4 9 -11 16 -14 16 -8 0 7 5 12 11 12
5 0 7 -5 3 -11 -4 -7 -1 -10 7 -7 8 3 22 1 32 -4 12 -6 17 -5 18 4 0 7 4 4 9
-7 l9 -20 1 20 c1 20 1 20 15 1 11 -15 15 -16 15 -5 0 8 9 15 19 15 11 0 18
-4 15 -7 -2 -4 1 -11 7 -15 7 -4 9 -3 6 3 -4 6 -1 16 7 22 11 9 15 9 18 0 3
-8 8 -7 19 3 8 8 23 14 33 12 10 -1 15 0 12 3 -3 3 6 17 20 30 14 13 27 30 28
38 1 8 11 22 22 31 10 8 12 12 4 8 -8 -4 -2 5 13 19 16 15 25 32 21 39 -4 7
-3 8 4 4 7 -4 12 -1 12 7 0 8 9 24 19 36 11 13 17 30 14 38 -4 9 -2 14 3 11 5
-4 9 19 8 53 0 32 3 59 8 59 11 0 6 23 -7 32 -5 5 6 7 25 5 34 -2 35 -3 35
-42 0 -30 4 -39 15 -37 11 3 12 1 4 -8 -7 -7 -9 -24 -4 -43 4 -18 6 -40 4 -50
-1 -9 2 -17 6 -17 5 0 7 -8 5 -18 -4 -22 30 -48 41 -30 4 6 3 8 -3 5 -6 -4
-13 0 -17 8 -3 8 0 15 6 15 6 0 6 6 -3 16 -14 18 -22 47 -10 39 4 -2 8 2 8 10
0 8 -5 11 -11 8 -6 -4 -5 1 3 10 7 9 9 17 3 17 -5 0 -10 21 -10 47 -1 26 -7
50 -14 55 -11 6 -11 8 0 8 10 0 10 5 2 20 -8 15 -8 20 2 20 8 0 9 3 3 8 -12 9
-18 30 -17 60 1 12 -3 22 -8 22 -6 0 -10 5 -10 11 0 5 6 7 13 3 8 -6 8 -3 -1
9 -8 9 -11 21 -7 27 3 5 1 10 -5 10 -7 0 -7 7 1 23 12 21 11 21 -6 7 -17 -14
-18 -14 -6 9 8 15 9 21 2 17 -7 -4 -11 1 -11 14 0 11 -7 23 -16 27 -8 3 -13
12 -10 19 3 8 1 14 -4 14 -6 0 -10 6 -10 14 0 8 -7 17 -16 20 -9 3 -14 13 -11
21 4 8 -2 16 -14 20 -15 5 -17 10 -9 20 8 10 6 17 -7 27 -10 7 -19 20 -21 28
-2 8 -8 17 -13 18 -5 2 -9 12 -9 22 0 10 -5 22 -12 26 -6 4 -8 3 -5 -3 3 -5 0
-10 -8 -10 -8 0 -12 4 -9 9 3 4 -8 21 -25 37 -16 16 -27 33 -23 37 4 5 -1 2
-10 -5 -15 -11 -17 -10 -13 9 2 13 2 20 -2 17 -3 -3 -12 1 -20 9 -8 8 -19 11
-25 8 -7 -4 -8 -2 -4 5 9 14 -15 39 -32 33 -7 -2 -10 2 -6 12 5 12 0 16 -20
16 -17 0 -26 5 -26 16 0 10 -6 14 -14 11 -8 -3 -20 2 -28 11 -11 13 -11 14 1
7 10 -6 12 -4 7 4 -5 7 -11 10 -14 7 -3 -3 -12 0 -21 8 -16 14 -20 16 -41 16
-5 0 -6 7 -3 17 5 12 3 14 -7 8 -9 -5 -11 -4 -6 4 4 6 18 9 32 7 16 -3 22 -1
18 6 -5 7 0 9 13 6 13 -4 27 2 37 13 12 15 21 17 41 9 23 -9 29 -6 26 13 -2
10 21 31 37 35 8 1 11 -2 7 -8 -3 -5 -2 -10 2 -10 5 0 18 -7 29 -16 10 -8 13
-13 7 -9 -7 3 -13 4 -13 1 0 -10 57 -35 64 -28 4 3 4 -1 0 -11 -3 -10 -1 -17
6 -17 6 0 8 -5 4 -12 -5 -8 0 -7 11 2 17 14 18 13 12 -2 -5 -13 0 -19 19 -24
16 -4 23 -11 20 -21 -3 -8 -1 -11 4 -8 6 3 10 1 10 -4 0 -6 5 -11 11 -11 5 0
7 5 3 12 -4 7 -3 8 4 4 6 -4 8 -14 5 -23 -4 -10 -2 -14 5 -9 6 3 13 2 17 -4 4
-6 11 -7 17 -4 7 5 8 2 4 -5 -5 -7 0 -19 10 -27 11 -9 14 -13 7 -10 -8 5 -9
-1 0 -24 6 -16 16 -30 22 -30 5 0 3 -5 -5 -10 -8 -5 -10 -10 -3 -10 6 0 10
-11 9 -25 -2 -13 0 -22 4 -20 5 3 11 -2 14 -11 4 -10 2 -13 -7 -7 -6 4 -4 -6
7 -21 10 -16 13 -25 7 -22 -6 4 -11 3 -11 -3 0 -5 4 -11 10 -13 5 -1 11 -16
12 -33 1 -16 5 -35 10 -41 4 -6 9 -24 10 -40 1 -16 4 -33 7 -39 3 -5 6 -16 8
-24 1 -8 4 -25 8 -38 3 -13 5 -26 4 -29 0 -4 5 -11 13 -15 10 -7 10 -9 0 -9
-9 0 -10 -5 -4 -17 5 -10 8 -26 7 -36 -2 -9 0 -15 4 -12 7 4 13 -32 12 -80 0
-11 5 -22 10 -26 8 -4 7 -13 -1 -29 -9 -17 -9 -21 0 -15 7 5 11 1 10 -11 -4
-34 0 -45 13 -38 10 6 10 4 0 -7 -16 -16 -17 -33 -1 -23 8 5 8 3 2 -7 -13 -21
-12 -60 1 -49 8 6 10 -1 7 -24 -2 -19 1 -37 7 -40 8 -5 8 -13 0 -28 -8 -15 -8
-19 0 -14 10 6 18 -56 12 -88 -1 -5 6 -3 15 5 16 12 17 12 11 -4 -4 -10 -7
-21 -7 -23 0 -3 -4 -2 -10 1 -6 4 -7 -2 -1 -17 7 -20 6 -24 -10 -25 -10 -1
-21 2 -24 7 -8 13 -36 0 -28 -14 3 -6 3 -8 -2 -4 -4 4 -7 37 -7 73 0 62 -1 65
-20 59 -14 -4 -18 -2 -14 5 4 6 15 11 24 11 13 0 13 2 -4 15 -10 8 -26 14 -34
14 -11 0 -11 -2 3 -10 13 -7 15 -14 8 -23 -13 -15 3 -41 19 -31 9 6 9 3 1 -12
-6 -12 -7 -32 -2 -49 11 -41 -6 -76 -30 -63 -15 8 -19 6 -20 -8 0 -15 -2 -15
-7 -3 -7 16 -62 23 -62 8 0 -5 -9 -4 -20 2 -16 9 -20 8 -20 -5 0 -15 -1 -15
-16 -1 -14 14 -34 14 -34 0 0 -3 5 -2 12 2 6 4 8 3 4 -4 -3 -6 -15 -9 -26 -7
-13 3 -20 -2 -20 -12 0 -13 -3 -13 -16 -3 -12 11 -15 11 -12 -1 2 -8 -3 -13
-9 -12 -7 2 -13 -2 -13 -9 0 -6 -3 -8 -7 -5 -3 4 -16 1 -28 -7 -12 -8 -35 -16
-51 -18 -16 -1 -32 -7 -36 -13 -5 -6 -8 -5 -8 3 0 6 -5 12 -11 12 -5 0 -7 -5
-3 -12 5 -8 2 -9 -9 -5 -10 4 -17 2 -17 -4 0 -6 -7 -8 -16 -5 -8 3 -12 2 -9
-4 3 -6 -3 -10 -14 -10 -12 0 -21 -5 -21 -12 0 -6 -3 -8 -7 -5 -3 4 -12 -1
-20 -11 -10 -11 -12 -12 -8 -2 4 8 -2 5 -13 -8 -14 -15 -22 -18 -25 -10 -3 8
-6 6 -6 -4 -1 -10 -7 -17 -13 -15 -7 1 -12 -4 -10 -11 1 -8 -2 -11 -7 -8 -13
8 -42 -4 -36 -15 3 -4 -4 -6 -15 -4 -13 2 -20 -1 -20 -11 0 -8 -6 -14 -12 -15
-7 0 -26 -2 -43 -2 -16 -1 -35 -5 -42 -10 -6 -4 -15 -2 -19 4 -5 8 -3 9 6 4 9
-6 11 -4 6 4 -6 9 -12 8 -26 -4 -13 -12 -20 -13 -25 -5 -6 9 -10 9 -16 -1 -7
-12 -9 -12 -9 0 0 11 -3 11 -15 1 -13 -11 -14 -10 -9 4 5 12 2 15 -10 10 -9
-3 -13 -11 -10 -18 3 -6 -2 -2 -10 8 -15 18 -21 15 -16 -9 1 -5 -4 -5 -11 2
-6 6 -18 9 -27 6 -11 -5 -13 -3 -7 8 7 11 5 11 -11 -1 -10 -8 -23 -19 -27 -25
-5 -6 -6 -2 -3 9 5 13 2 17 -9 13 -8 -4 -17 -2 -20 4 -4 6 -13 6 -23 0 -11 -6
-24 -4 -41 8 -14 9 -22 11 -18 4 6 -9 2 -13 -12 -13 -12 0 -21 4 -21 9 0 5
-12 8 -27 6 -16 -2 -28 -4 -28 -5 0 -1 -8 -3 -17 -5 -12 -2 -15 2 -11 13 3 13
1 12 -12 -3 -9 -11 -20 -20 -25 -20 -4 0 -12 -4 -17 -8 -4 -5 -3 -8 2 -7 6 1
12 2 15 0 25 -9 50 -8 44 2 -5 7 -3 8 5 4 7 -5 10 -13 8 -20 -3 -7 8 -11 29
-12 62 -3 65 -4 58 -16 -5 -8 0 -7 11 2 10 8 16 10 12 4 -4 -7 0 -15 9 -18 10
-4 13 -2 9 7 -4 6 -1 5 7 -3 7 -8 19 -15 26 -16 6 -1 26 -2 43 -2 21 -1 30 -6
26 -15 -3 -8 4 -12 22 -11 14 0 29 -4 33 -10 5 -7 8 -6 8 4 0 12 2 12 9 2 4
-7 18 -14 29 -15 12 -1 22 -4 22 -7 0 -5 18 -9 58 -12 6 -1 12 -5 12 -9 0 -4
7 -10 16 -13 10 -4 13 -2 7 7 -4 6 5 4 20 -6 15 -10 35 -16 45 -15 9 2 16 -3
15 -9 -4 -16 9 -17 25 -1 9 9 12 9 12 -1 0 -7 5 -9 10 -6 6 3 13 -1 16 -9 3
-9 10 -16 16 -16 5 0 6 6 2 13 -4 6 3 3 15 -7 25 -22 55 -31 44 -13 -3 7 2 5
13 -4 10 -9 25 -14 33 -11 8 2 11 0 7 -6 -9 -15 20 -22 33 -9 7 7 12 8 11 2
-5 -22 1 -27 17 -14 11 10 14 10 9 2 -5 -9 0 -13 15 -13 12 0 28 -8 36 -17 8
-10 12 -12 8 -5 -3 6 -2 12 3 12 6 0 12 -6 15 -13 3 -8 18 -12 37 -11 19 1 33
-3 36 -11 3 -8 13 -12 23 -10 10 2 18 -3 18 -10 0 -8 -4 -12 -9 -9 -4 3 -8 -2
-8 -11 0 -9 -5 -13 -10 -10 -5 3 -10 1 -10 -5 0 -6 -4 -9 -9 -6 -5 3 -12 -1
-15 -10 -3 -9 -13 -14 -21 -10 -8 3 -17 0 -21 -6 -4 -7 -3 -8 4 -4 18 11 14
-10 -5 -25 -11 -10 -14 -10 -9 -1 4 6 2 12 -3 12 -6 0 -11 -8 -11 -17 0 -9 -3
-14 -6 -10 -9 9 -33 -16 -26 -28 3 -5 -3 -3 -13 5 -10 8 -16 10 -12 3 9 -14
-27 -55 -38 -45 -4 4 -5 2 -3 -3 2 -6 -10 -26 -26 -45 -19 -22 -27 -28 -23
-15 7 20 7 20 -8 1 -8 -11 -15 -24 -15 -29 0 -5 -7 -6 -16 -3 -14 6 -15 4 -4
-9 11 -13 11 -16 -1 -13 -8 2 -13 -2 -12 -9 2 -8 -4 -10 -14 -6 -11 4 -14 2
-9 -5 3 -6 -3 -16 -14 -22 -17 -9 -18 -14 -9 -32 8 -15 8 -19 0 -14 -12 8 -35
-37 -40 -75 0 -5 -5 -8 -10 -5 -5 4 -8 -6 -6 -20 1 -15 -3 -28 -12 -31 -8 -3
-12 -12 -9 -20 3 -8 1 -11 -4 -8 -6 3 -10 -1 -10 -10 0 -10 5 -13 13 -9 6 4 3
-2 -7 -14 -14 -17 -16 -22 -5 -22 8 0 10 -3 4 -8 -5 -4 -10 -16 -10 -27 0 -11
-6 -25 -13 -31 -12 -9 -12 -13 3 -27 15 -16 15 -17 -1 -17 -13 0 -14 -3 -5
-14 9 -10 9 -16 1 -21 -6 -4 -9 -13 -6 -21 3 -8 0 -13 -7 -11 -7 1 -11 -6 -11
-15 1 -11 -5 -15 -18 -13 -16 4 -18 2 -8 -10 10 -12 9 -15 -3 -15 -9 0 -19 -9
-22 -20 -4 -11 -11 -18 -16 -15 -5 4 -9 1 -9 -5 0 -6 -12 -22 -26 -35 -17 -16
-22 -25 -13 -26 8 0 4 -4 -9 -10 -13 -5 -20 -13 -17 -19 3 -5 -1 -10 -9 -10
-9 0 -16 -6 -16 -14 0 -8 -7 -17 -16 -20 -9 -3 -12 -11 -8 -18 5 -7 2 -9 -9
-5 -12 4 -15 1 -12 -14 2 -11 0 -17 -5 -14 -11 7 -42 -24 -35 -36 4 -5 1 -9
-5 -9 -7 0 -25 -13 -40 -30 -15 -16 -26 -30 -23 -30 2 0 -2 -7 -11 -15 -17
-18 -30 -20 -20 -3 4 6 3 8 -4 5 -5 -4 -9 -18 -8 -31 2 -16 -1 -23 -9 -19 -7
2 -13 -2 -12 -9 2 -45 -4 -78 -13 -73 -5 3 -10 1 -10 -4 0 -6 6 -11 13 -11 8
0 8 -3 2 -8 -6 -4 -10 -14 -10 -22 0 -8 -6 -20 -14 -26 -11 -8 -11 -13 -2 -18
8 -5 9 -12 3 -19 -5 -7 -12 -25 -16 -42 -14 -67 -17 -79 -25 -94 -4 -9 -6 -28
-5 -44 2 -15 -1 -25 -6 -22 -4 3 -6 -5 -2 -17 3 -12 1 -19 -4 -15 -5 3 -9 -12
-8 -34 0 -21 -4 -39 -9 -39 -6 0 -7 -3 -4 -7 4 -3 2 -12 -4 -19 -6 -8 -6 -14
0 -18 11 -7 -15 -66 -29 -66 -5 0 -6 -7 -3 -17 4 -11 3 -14 -5 -9 -7 4 -12 2
-12 -4 0 -6 -5 -8 -12 -4 -6 4 -8 3 -4 -4 3 -6 0 -17 -8 -25 -8 -8 -12 -18 -8
-23 4 -5 -2 -2 -13 6 -11 8 -17 10 -12 5 4 -4 -1 -18 -10 -29 -18 -20 -17 -20
2 -6 19 14 19 14 6 -2 -7 -10 -20 -18 -27 -18 -8 0 -11 -6 -7 -17 4 -10 2 -14
-5 -9 -6 3 -13 2 -17 -4 -3 -5 0 -10 7 -10 10 0 10 -2 0 -9 -10 -6 -7 -10 11
-13 17 -3 24 -1 21 7 -3 6 2 12 10 12 8 0 13 -4 9 -9 -3 -6 4 -8 14 -6 11 2
28 -4 38 -12 17 -14 18 -14 5 10 -11 21 -11 23 1 14 8 -6 23 -14 33 -18 17 -6
17 -5 5 11 -13 16 -11 16 15 -1 26 -16 28 -17 23 -2 -5 12 -3 15 6 9 6 -4 14
-8 17 -8 3 -1 21 -9 40 -19 33 -18 34 -18 20 -1 -14 17 -14 17 7 5 12 -8 19
-18 16 -23 -3 -5 4 -6 16 -2 16 5 21 2 21 -12 0 -14 2 -15 9 -4 5 8 16 11 26
8 9 -4 14 -11 11 -16 -3 -5 4 -7 16 -3 11 3 19 1 16 -4 -4 -5 5 -10 19 -11 14
0 29 -7 34 -15 5 -7 9 -8 9 -2 0 6 7 11 15 11 9 0 14 -6 11 -13 -3 -8 0 -11
10 -7 8 3 14 -1 14 -8 0 -8 5 -5 14 6 13 18 14 18 31 -2 14 -17 23 -19 41 -13
17 7 28 5 39 -6 9 -9 15 -11 15 -4 0 7 6 5 16 -4 19 -19 25 -20 21 -3 -1 6 6
11 15 11 10 -1 16 2 13 6 -3 4 2 11 11 14 8 3 12 2 9 -3 -3 -5 8 -3 25 5 16 9
30 19 30 24 0 5 7 7 15 4 8 -4 17 1 21 10 3 9 10 13 15 10 5 -3 18 1 29 9 19
14 70 12 70 -2 0 -14 40 -9 41 5 1 8 2 20 3 27 1 6 -2 20 -7 31 -6 12 -5 21 3
26 6 4 12 11 12 16 2 21 21 64 27 60 4 -3 13 4 20 16 10 16 10 19 -1 12 -10
-6 -11 -5 -1 8 7 8 10 18 6 22 -4 4 1 4 12 0 11 -4 17 -4 13 1 -4 4 -3 14 3
21 6 8 9 20 6 28 -4 9 0 13 11 11 9 -1 16 -8 14 -14 -3 -15 23 -42 32 -33 4 3
4 -1 0 -11 -4 -11 -1 -17 7 -17 7 0 9 -3 6 -6 -4 -4 2 -15 14 -25 14 -12 16
-18 7 -22 -8 -3 -6 -6 5 -6 10 -1 15 -5 12 -11 -3 -5 -2 -10 4 -10 6 0 13 -11
17 -25 3 -14 17 -34 30 -44 13 -10 24 -24 24 -30 0 -6 5 -11 11 -11 6 0 9 -7
5 -15 -3 -8 0 -14 6 -12 7 1 12 -3 13 -10 0 -6 3 -15 8 -19 10 -11 9 -26 -2
-19 -6 3 -15 -3 -21 -14 -6 -12 -16 -18 -25 -15 -8 4 -15 1 -15 -6 0 -6 -4 -9
-9 -6 -5 4 -11 3 -13 -2 -1 -4 -25 -25 -53 -47 -27 -21 -62 -51 -77 -65 -58
-54 -65 -60 -77 -60 -7 0 -10 -4 -7 -8 3 -5 0 -9 -7 -9 -7 -1 -34 -4 -62 -7
-27 -4 -68 -8 -89 -9 -22 -1 -41 -7 -43 -12 -3 -9 54 -16 155 -18 23 0 42 -4
42 -9 0 -4 9 -8 20 -8 11 0 20 -5 20 -10 0 -6 12 -16 28 -22 15 -7 34 -19 42
-28 8 -8 20 -16 27 -17 20 -4 82 -50 76 -57 -4 -3 -1 -6 6 -6 7 0 9 -4 6 -10
-3 -5 -2 -10 4 -10 5 0 11 5 13 11 2 6 12 7 28 1 20 -8 25 -16 26 -51 0 -22
-2 -41 -6 -41 -4 0 -6 -16 -5 -35 1 -19 -3 -35 -9 -35 -6 0 -4 -5 4 -10 12 -7
12 -10 1 -10 -8 0 -11 -6 -7 -16 3 -8 1 -25 -5 -36 -9 -16 -8 -19 3 -12 10 6
11 5 2 -7 -6 -8 -11 -26 -10 -42 1 -15 -3 -27 -9 -27 -5 0 -3 -5 5 -10 8 -5
10 -10 5 -10 -7 0 -10 -41 -10 -107 0 -63 -4 -111 -10 -115 -6 -5 -5 -8 4 -8
11 0 11 -3 1 -15 -7 -8 -9 -15 -6 -15 4 0 0 -10 -8 -21 -8 -12 -12 -28 -9 -37
5 -11 3 -13 -7 -7 -10 6 -12 4 -6 -11 4 -10 4 -15 0 -11 -9 9 -37 -30 -30 -42
3 -5 -1 -12 -10 -15 -10 -4 -13 -13 -9 -26 4 -13 2 -20 -7 -20 -10 0 -9 -3 2
-10 11 -7 11 -10 2 -10 -7 0 -12 -8 -10 -17 1 -10 -1 -24 -6 -32 -7 -11 -6
-12 5 -6 12 7 12 6 1 -7 -10 -13 -10 -17 0 -21 9 -4 10 -6 1 -6 -7 -1 -10 -8
-6 -18 4 -11 3 -14 -5 -9 -9 5 -9 0 -2 -19 7 -18 7 -24 0 -20 -7 4 -9 -3 -6
-18 2 -13 0 -30 -4 -38 -5 -8 -4 -19 3 -28 7 -9 7 -12 1 -8 -10 6 -15 -23 -16
-113 -1 -19 -6 -38 -12 -42 -8 -6 -8 -8 1 -8 12 0 12 -17 0 -37 -4 -6 -3 -14
2 -18 7 -3 7 -15 1 -30 -6 -16 -5 -25 3 -29 8 -3 8 -5 -2 -5 -11 -1 -11 -4 -1
-16 10 -12 10 -15 0 -15 -9 0 -10 -3 -1 -13 6 -8 8 -17 4 -20 -16 -16 35 -5
53 11 11 10 25 17 32 14 7 -2 10 2 6 11 -4 12 1 15 20 13 15 -2 23 1 19 7 -4
6 0 8 11 4 9 -4 15 -3 12 2 -3 5 2 15 11 22 12 10 14 10 9 2 -9 -16 -1 -16 26
-2 18 10 20 9 14 -7 -6 -16 -5 -16 15 2 12 10 19 13 15 7 -4 -7 -3 -13 3 -13
5 0 11 6 14 13 5 13 8 -27 8 -85 0 -24 4 -38 12 -38 7 0 8 -3 2 -8 -15 -11
-16 -29 -1 -29 12 0 16 11 17 50 0 10 5 15 11 11 7 -5 9 -1 5 9 -3 9 -2 19 3
22 6 4 10 15 10 25 0 11 10 25 23 31 27 15 97 18 97 5 0 -6 5 -5 12 2 17 17
28 15 28 -5 0 -15 1 -15 13 2 11 14 16 15 22 5 6 -10 9 -9 16 1 7 11 9 11 9 1
0 -7 4 -10 10 -7 5 3 20 8 32 10 12 3 24 9 27 14 4 5 20 12 36 14 17 2 29 10
27 16 -1 7 2 10 8 6 6 -3 7 -12 3 -18 -5 -8 -2 -8 9 1 12 10 17 10 27 -1 6 -8
8 -17 4 -20 -3 -4 0 -14 8 -24 9 -11 10 -14 2 -9 -7 4 -13 2 -13 -3 0 -6 5
-11 11 -11 8 0 7 -6 -2 -17 -11 -13 -11 -17 -1 -20 6 -3 12 -12 12 -22 0 -9 9
-23 20 -31 11 -8 20 -21 20 -29 0 -8 3 -12 6 -8 3 3 17 -4 30 -16 18 -15 21
-23 12 -29 -9 -5 -6 -8 10 -8 14 0 22 -6 22 -17 0 -14 2 -15 9 -5 6 10 10 9
14 -7 3 -14 10 -19 21 -15 9 3 13 11 9 18 -3 6 3 3 14 -7 11 -9 22 -15 24 -13
2 2 10 -2 17 -10 10 -11 10 -14 0 -14 -9 0 -9 -3 2 -10 8 -5 12 -10 8 -10 -4
0 -3 -12 2 -26 7 -19 7 -23 -2 -18 -8 5 -9 2 -5 -9 5 -14 2 -16 -18 -11 -17 4
-25 2 -25 -7 0 -11 -3 -11 -10 1 -8 13 -10 12 -10 -3 0 -17 -1 -17 -16 -3 -19
19 -25 20 -22 4 2 -7 -2 -12 -9 -11 -8 2 -10 -4 -6 -14 5 -11 8 -13 11 -4 3 8
8 7 18 -6 11 -14 14 -15 14 -3 1 10 4 9 10 -5 8 -18 9 -18 9 -2 1 10 6 15 11
12 6 -4 7 -11 4 -17 -4 -6 2 -5 15 1 12 7 21 8 20 4 -3 -19 2 -30 16 -31 8 -1
22 -3 30 -4 8 -1 12 -5 9 -10 -3 -4 2 -8 11 -8 10 0 13 -5 9 -12 -5 -8 -2 -9
11 -4 11 4 25 0 37 -11 11 -10 22 -17 24 -15 13 7 34 0 28 -10 -5 -7 -2 -9 8
-5 9 3 21 0 28 -6 10 -9 11 -9 6 0 -5 9 -2 11 8 7 9 -3 13 -11 10 -18 -3 -6 2
-2 10 8 15 18 21 15 16 -9 -1 -5 4 -4 11 2 17 17 32 17 24 1 -4 -7 1 -4 9 6
15 18 21 15 17 -8 -1 -5 5 -4 13 3 9 8 23 10 33 6 10 -4 26 -9 35 -10 14 -1
15 1 6 12 -8 11 -7 12 6 7 9 -3 16 -10 16 -16 0 -5 5 -6 10 -3 6 4 8 10 5 15
-3 4 4 6 15 3 11 -3 18 -9 15 -12 -2 -4 2 -8 9 -8 9 0 12 7 8 16 -4 12 0 11
18 -4 13 -11 20 -14 16 -7 -4 7 -1 12 9 12 9 0 13 -5 10 -10 -3 -6 1 -10 10
-10 9 0 13 -5 10 -10 -3 -5 0 -10 7 -10 11 0 11 -2 0 -9 -11 -7 -10 -11 2 -24
10 -9 12 -18 6 -22 -6 -4 -4 -15 6 -31 10 -14 12 -24 5 -24 -6 0 -8 -7 -4 -17
4 -11 3 -14 -5 -9 -7 4 -12 1 -12 -9 0 -9 -4 -14 -9 -11 -5 4 -11 1 -13 -6 -2
-6 -20 -13 -39 -15 -49 -4 -62 -7 -78 -17 -10 -6 -12 -5 -7 2 4 7 3 12 -3 12
-5 0 -13 -5 -17 -11 -4 -8 -9 -7 -15 2 -7 11 -9 11 -9 -1 0 -13 -2 -13 -9 -1
-7 11 -18 4 -52 -30 -24 -24 -40 -38 -36 -31 5 6 6 12 3 12 -5 0 -29 -49 -39
-82 -3 -9 1 -19 9 -22 8 -3 14 -11 14 -19 0 -16 57 -50 70 -42 6 3 10 1 10 -5
0 -6 5 -8 10 -5 6 4 9 1 8 -7 -2 -7 2 -12 9 -11 6 2 11 -6 10 -17 -1 -11 -5
-20 -10 -20 -4 0 -5 -4 -2 -10 3 -5 -1 -10 -9 -10 -11 0 -16 -9 -16 -27 0 -20
3 -24 9 -14 6 9 11 10 15 3 4 -6 13 -9 21 -5 8 3 15 0 15 -6 0 -6 3 -10 8 -9
4 1 17 -3 28 -10 12 -6 24 -8 28 -5 3 3 6 1 6 -5 0 -7 6 -12 14 -12 8 0 17 -6
19 -12 4 -10 6 -9 6 1 1 11 4 11 16 1 9 -7 18 -10 22 -6 3 3 15 -2 26 -11 15
-13 18 -14 12 -3 -6 12 -5 13 6 3 7 -7 25 -13 40 -13 15 0 31 -5 34 -10 5 -8
11 -7 21 1 7 6 21 9 29 5 8 -3 15 -2 15 3 0 7 7 9 50 13 11 1 20 5 20 9 0 4 8
6 18 5 9 -2 20 1 23 6 3 5 24 10 46 11 23 1 39 5 37 9 -2 4 0 9 5 12 5 4 13 1
16 -4 5 -8 13 -6 26 6 10 9 19 13 19 9 0 -5 5 -4 11 2 6 6 18 9 25 6 8 -3 14
0 14 7 0 7 7 10 15 6 8 -3 15 -2 15 2 0 4 12 9 28 9 70 4 82 6 82 13 0 5 8 7
18 6 9 -2 23 4 30 13 8 9 11 10 7 4 -4 -9 -1 -11 10 -7 9 4 14 9 11 12 -3 3
13 15 37 27 23 12 59 31 80 43 20 12 37 19 37 16 0 -4 6 -1 14 5 11 10 14 9
12 -1 -1 -7 -5 -18 -9 -25 -4 -6 -1 -14 5 -16 10 -4 10 -6 0 -6 -7 -1 -10 -6
-7 -11 3 -6 2 -10 -4 -10 -6 0 -8 -7 -5 -15 4 -8 1 -15 -5 -15 -7 0 -11 -8 -9
-18 2 -9 -2 -16 -8 -15 -6 1 -11 -4 -11 -12 0 -8 4 -12 8 -10 4 3 2 -6 -4 -19
-7 -13 -16 -22 -22 -18 -5 3 -4 -2 4 -11 12 -15 10 -18 -10 -26 -21 -8 -12
-16 14 -12 4 0 7 -4 7 -10 0 -6 -9 -8 -22 -4 -16 4 -19 4 -9 -3 8 -6 10 -15 6
-23 -5 -8 4 -3 18 10 15 13 24 27 22 31 -3 5 2 11 11 14 8 3 12 10 9 16 -4 6
1 7 11 3 12 -4 15 -3 10 5 -4 6 2 17 14 24 11 7 20 18 20 25 0 7 7 13 17 13 9
0 13 3 10 7 -4 3 1 12 11 20 11 10 12 12 2 8 -10 -4 -9 -2 2 8 10 8 15 17 11
20 -3 4 -1 7 5 7 7 0 12 -7 12 -15 0 -8 5 -15 10 -15 6 0 10 -9 10 -20 0 -11
7 -20 16 -20 8 0 12 -5 9 -10 -3 -6 1 -10 9 -10 8 0 20 -9 26 -20 6 -11 17
-20 25 -20 8 0 15 -6 15 -14 0 -14 29 -30 38 -21 3 3 0 5 -6 5 -7 0 -11 3 -11
8 5 27 -2 52 -12 46 -8 -5 -10 1 -7 19 3 15 2 24 -2 22 -4 -3 -13 2 -20 10 -7
8 -10 15 -6 15 4 0 -1 11 -10 25 -9 14 -13 25 -9 25 5 0 0 9 -10 20 -18 19
-17 20 6 20 19 0 21 -2 9 -10 -13 -8 -12 -10 4 -10 15 0 17 -5 11 -27 -6 -24
-5 -25 12 -12 16 13 17 12 4 -3 -11 -15 -11 -18 0 -18 11 0 11 -3 -1 -11 -12
-8 -12 -10 -1 -7 16 5 23 50 9 59 -5 3 -3 9 6 12 9 4 16 2 16 -4 0 -6 4 -8 9
-5 5 3 14 -1 21 -9 7 -8 19 -15 28 -15 8 0 21 -8 28 -17 11 -15 13 -15 14 -3
0 12 4 10 15 -4 8 -11 15 -16 15 -12 0 4 14 -1 31 -11 24 -14 33 -15 36 -5 3
6 9 10 14 6 5 -3 9 1 9 9 0 7 11 19 25 25 20 9 26 8 34 -6 8 -14 11 -14 11 -2
0 12 4 10 15 -4 8 -11 15 -15 15 -10 0 6 7 11 15 11 10 0 14 -6 10 -15 -4 -11
-2 -12 7 -5 17 13 48 13 48 -1 0 -6 5 -4 10 4 8 12 10 12 10 1 0 -8 3 -11 7
-8 3 4 12 -1 20 -11 8 -9 12 -11 8 -5 -8 17 26 4 43 -16 11 -13 12 -13 6 -1
-7 13 -5 13 9 2 9 -8 21 -11 27 -7 5 3 14 -4 19 -17 6 -13 10 -18 10 -12 1 7
8 15 17 18 14 5 15 4 4 -9 -15 -18 0 -20 19 -2 8 7 11 7 8 1 -4 -7 1 -18 10
-25 9 -8 14 -9 10 -3 -10 16 26 12 36 -4 5 -7 12 -10 18 -7 5 4 9 1 9 -6 0 -8
4 -8 15 1 12 10 16 8 24 -11 5 -13 10 -17 10 -10 1 11 4 12 13 3 8 -8 16 -8
32 0 19 10 20 10 7 -6 -12 -14 -12 -16 3 -10 10 4 16 1 16 -7 0 -11 3 -11 10
1 8 12 10 12 10 1 0 -11 3 -11 17 0 9 8 14 9 10 3 -4 -7 0 -17 8 -24 13 -11
15 -10 9 6 -5 17 -4 17 8 3 17 -19 111 -22 104 -3 -3 8 0 11 10 7 8 -3 21 0
29 7 12 10 18 10 30 0 13 -11 14 -10 10 2 -5 12 0 15 19 13 16 -2 24 1 20 7
-5 7 4 9 24 6 26 -4 29 -2 20 9 -6 8 -7 13 -2 12 27 -5 55 2 48 12 -5 8 1 10
20 7 22 -4 24 -3 14 9 -6 8 -7 13 -2 12 14 -4 54 11 54 20 0 5 14 7 30 6 17
-1 30 2 30 7 0 5 4 7 9 3 5 -3 13 0 17 6 5 8 3 9 -6 4 -10 -6 -12 -3 -8 13 4
15 2 22 -8 22 -8 0 -14 5 -14 11 0 5 6 7 13 4 6 -4 3 2 -9 12 -11 10 -23 27
-26 38 -5 22 14 47 34 43 7 -2 12 4 13 12 0 8 6 16 13 16 6 1 17 2 23 3 5 0 7
6 4 11 -9 14 9 12 24 -2 10 -11 11 -10 6 4 -4 11 0 21 13 29 11 7 18 18 15 25
-2 6 1 15 6 19 6 3 8 11 5 17 -4 7 -2 8 5 4 17 -11 26 24 12 46 -10 16 -10 19
1 13 7 -4 2 3 -12 15 -14 12 -19 19 -11 15 21 -12 -14 37 -44 59 -14 10 -25
24 -25 30 0 6 -9 18 -19 26 -11 7 -18 16 -16 19 2 4 -14 6 -35 6 -21 0 -36 -3
-34 -7 2 -3 0 -10 -6 -13 -6 -4 -9 -1 -8 7 2 7 -4 13 -12 13 -8 0 -21 4 -27 8
-7 5 -13 4 -13 0 0 -15 -74 -1 -88 16 -7 9 -11 11 -8 4 4 -6 2 -14 -3 -17 -5
-4 -8 1 -7 11 2 9 9 17 17 19 34 5 45 10 60 26 9 10 19 15 22 12 3 -3 8 4 12
15 3 12 10 19 15 16 16 -10 38 48 43 112 0 7 4 10 9 7 5 -3 23 -7 40 -10 17
-2 35 -9 40 -16 6 -11 8 -11 8 0 0 10 4 10 23 0 26 -14 44 -16 75 -6 15 5 22
3 22 -5 0 -8 3 -8 9 2 6 9 10 10 16 2 5 -9 11 -9 22 0 12 10 16 10 24 -2 7
-11 9 -11 9 0 0 11 3 11 15 1 12 -10 15 -10 15 0 0 10 3 10 15 0 11 -9 15 -9
15 -1 0 7 5 9 13 4 16 -10 38 -10 60 0 10 5 17 4 17 -3 0 -5 9 -10 20 -10 11
0 20 -4 20 -8 0 -5 7 -9 15 -10 8 -1 22 -3 30 -4 8 -1 12 -5 9 -9 -6 -11 12
-20 28 -14 16 6 19 105 3 105 -5 0 -4 4 3 9 17 10 17 22 1 32 -10 6 -10 11 0
22 7 9 8 17 2 19 -5 1 -11 28 -13 58 -1 30 -7 58 -13 62 -6 5 -4 8 5 8 11 0
12 2 3 8 -7 4 -13 27 -14 50 -2 23 -6 42 -11 42 -4 0 -5 6 -2 14 3 7 -2 16
-10 19 -9 4 -13 13 -10 22 4 10 2 15 -7 13 -7 -2 -13 3 -14 10 0 7 -7 17 -15
22 -8 5 -11 10 -7 10 16 0 -14 39 -42 53 -22 11 -32 12 -41 3 -9 -8 -11 -7 -8
4 2 9 -4 14 -14 14 -10 -1 -18 2 -18 8 0 5 -4 6 -10 3 -5 -3 -16 -3 -22 2 -14
8 -42 13 -95 16 -18 0 -33 4 -33 8 0 3 -22 5 -50 5 -27 0 -50 -4 -50 -9 0 -4
-13 -15 -30 -26 -16 -10 -28 -20 -25 -23 3 -2 -11 -9 -30 -15 -19 -6 -35 -8
-35 -3 0 4 -13 6 -29 4 -25 -3 -28 0 -24 16 3 11 9 20 13 20 5 0 7 11 5 25 -3
30 25 51 43 33 9 -9 12 -9 12 -1 0 6 8 10 18 9 9 -2 19 0 22 3 3 4 16 15 30
24 13 9 19 17 13 17 -9 0 -11 19 -8 65 3 54 0 69 -18 92 -33 43 -44 53 -51 46
-8 -9 -1 81 8 95 4 7 3 12 -2 12 -5 0 -8 28 -8 62 1 34 -4 72 -11 84 -9 19 -9
22 3 17 9 -3 14 0 12 8 -2 8 3 12 12 10 8 -2 21 -4 28 -4 6 0 12 -3 12 -7 0
-3 10 -7 23 -8 46 -6 53 -8 75 -20 18 -10 22 -10 22 0 0 10 3 10 9 -1 5 -8 16
-11 24 -8 9 3 18 -1 21 -8 3 -8 12 -12 21 -9 8 3 15 2 15 -4 0 -5 7 -13 16
-16 10 -4 13 -2 8 7 -4 6 2 4 13 -6 11 -9 23 -14 26 -10 4 3 7 1 7 -5 0 -7 3
-11 8 -11 19 3 32 -2 32 -12 0 -7 14 -25 30 -41 17 -15 30 -32 30 -36 0 -4 9
-15 20 -25 11 -9 20 -15 20 -12 0 7 -24 59 -30 65 -3 3 -9 13 -15 23 -5 10
-12 17 -15 15 -7 -4 -70 63 -70 75 0 6 -3 7 -7 4 -3 -4 -12 -2 -19 3 -6 6 -22
13 -35 15 -12 3 -26 10 -31 17 -4 7 -8 9 -8 4 0 -5 -7 -3 -15 4 -8 6 -19 9
-25 5 -5 -3 -10 -1 -10 5 0 6 -4 9 -9 6 -5 -4 -11 -1 -13 5 -2 6 -34 12 -80
12 -56 2 -74 5 -71 15 3 6 9 12 15 12 5 0 7 4 4 9 -3 5 6 17 20 26 15 9 24 13
21 7 -4 -5 13 -9 40 -9 26 0 49 -5 51 -12 2 -6 8 -11 13 -11 6 0 7 6 3 12 -6
11 -4 11 7 1 7 -7 21 -13 31 -13 10 0 18 -4 18 -10 0 -9 23 -8 71 2 10 2 23 8
30 14 8 6 24 9 37 8 12 0 22 3 22 7 0 5 4 8 9 6 12 -3 52 44 45 54 -3 5 2 6
11 3 9 -4 15 -2 13 4 -3 12 30 58 80 109 29 30 37 33 33 11 0 -5 3 -8 7 -8 4
0 8 -10 9 -21 1 -12 9 -29 17 -38 9 -10 16 -24 16 -32 0 -12 2 -11 10 1 8 13
10 13 10 -1 0 -9 11 -28 25 -43 14 -15 25 -31 25 -37 0 -5 7 -9 16 -9 8 0 12
-4 9 -10 -4 -6 5 -10 19 -10 14 0 26 -4 26 -8 0 -4 10 -8 22 -9 11 -1 24 -6
27 -10 3 -4 15 -10 26 -11 11 -2 22 -8 23 -13 2 -6 10 -5 19 2 11 10 14 10 11
-2 -4 -18 62 -15 74 4 5 7 8 8 8 1 0 -6 7 -11 15 -11 8 0 15 3 15 7 0 3 15 7
33 8 17 2 39 3 47 4 42 3 62 -3 67 -22 3 -11 11 -20 19 -20 16 0 60 -58 56
-73 -2 -6 3 -6 11 1 12 10 17 7 27 -18 7 -16 16 -30 20 -30 5 0 7 -13 6 -30
-1 -16 3 -31 10 -34 7 -3 11 -18 10 -35 -1 -17 2 -27 8 -24 5 4 7 -3 4 -15 -4
-12 -2 -22 4 -22 6 0 8 -9 5 -20 -3 -11 0 -20 6 -20 7 0 5 -5 -3 -10 -13 -8
-12 -10 3 -10 9 0 16 -3 16 -7 -5 -33 3 -70 16 -70 8 0 11 5 8 10 -3 5 1 13 8
18 11 7 11 9 1 9 -8 0 -10 5 -6 12 11 18 12 48 2 54 -5 3 -5 11 1 18 6 7 6 17
1 26 -5 8 -5 21 1 32 7 13 6 18 -2 18 -8 0 -6 7 4 18 13 15 14 21 4 32 -10 10
-9 11 1 5 10 -5 13 0 11 21 -2 16 0 35 4 42 5 6 4 12 -2 12 -6 0 -8 7 -5 15 4
8 11 12 18 8 6 -4 3 6 -8 21 -10 16 -13 25 -7 22 11 -7 13 0 14 42 0 12 3 22
7 22 3 0 4 14 2 31 -3 21 -1 30 6 25 6 -3 13 -2 17 4 4 6 11 7 17 4 7 -4 8 -2
4 5 -4 6 -12 8 -18 5 -7 -4 -8 -2 -4 5 4 6 3 18 -3 25 -9 11 -8 18 4 29 9 10
11 18 5 22 -7 4 -6 14 2 28 14 25 19 50 18 90 0 15 4 27 8 27 11 0 9 31 -3 49
-5 10 -4 12 3 7 12 -7 16 5 13 32 -1 6 3 12 10 12 9 0 9 3 0 14 -9 11 -8 15 5
20 12 5 14 9 5 20 -6 7 -7 16 -3 20 4 4 8 20 8 34 1 15 3 27 4 27 4 0 11 47
13 87 1 21 6 38 10 38 4 0 2 10 -4 23 -12 21 -11 21 7 7 18 -15 18 -14 2 11
-15 24 -15 27 0 43 14 14 14 16 2 11 -11 -4 -16 1 -16 14 0 11 4 17 8 15 10
-6 11 10 1 20 -9 9 -11 46 -2 40 4 -2 7 5 6 16 -1 11 -6 20 -12 20 -5 0 -4 4
3 9 8 4 14 12 14 16 0 4 -6 12 -14 16 -7 5 -8 9 -2 9 6 0 11 7 11 15 0 8 -4
15 -9 15 -5 0 -6 5 -3 10 4 6 10 8 14 6 4 -3 8 1 8 9 0 8 -4 12 -8 10 -8 -6
-17 26 -12 43 3 6 9 10 14 7 5 -4 6 1 3 9 -3 9 -11 13 -18 9 -6 -4 -5 1 3 10
11 14 11 17 0 17 -8 0 -6 6 7 16 10 8 14 13 7 10 -15 -8 -27 10 -13 19 5 3 10
11 10 16 0 6 -6 7 -12 3 -10 -6 -10 -4 0 8 7 9 9 19 4 22 -10 6 -9 36 2 54 4
7 2 12 -6 12 -9 0 -9 3 2 10 8 5 10 10 5 10 -6 0 -11 17 -12 37 -2 88 -3 104
-10 100 -12 -8 -10 77 2 85 7 5 6 8 -1 8 -6 0 -11 12 -10 28 1 15 -6 33 -14
40 -8 8 -9 11 -2 7 13 -6 17 17 5 29 -4 3 -8 32 -9 64 -1 31 -5 66 -10 76 -6
15 -4 17 7 11 11 -7 11 -5 -1 10 -8 10 -10 16 -3 12 6 -4 19 0 27 9 9 8 16 11
16 5 0 -6 7 -8 15 -5 8 4 12 10 9 15 -5 9 0 11 29 13 14 1 43 37 39 49 -1 4 7
3 19 -4 14 -7 19 -7 15 0 -8 13 28 51 49 51 8 0 15 7 15 15 0 8 7 15 15 15 8
0 15 5 15 11 0 5 5 7 12 3 7 -5 9 -2 5 9 -4 12 -2 14 10 10 11 -4 14 -2 9 5
-4 7 -1 12 7 12 8 0 18 7 21 16 3 8 10 13 15 10 5 -3 11 1 15 9 3 10 16 13 36
11 16 -2 30 0 30 4 0 4 12 5 26 2 21 -4 25 -2 19 9 -7 11 -6 12 6 3 20 -15 61
-16 52 -1 -4 7 2 5 12 -3 17 -14 18 -13 12 5 -7 20 -7 20 8 1 15 -20 15 -20
16 0 0 15 2 16 7 4 10 -21 42 -23 35 -2 -4 10 -2 13 5 8 6 -3 14 -1 18 5 4 8
3 9 -4 5 -7 -4 -12 -3 -12 2 0 5 -10 8 -22 7 -13 -1 -31 2 -40 6 -10 6 -19 5
-23 -1 -9 -14 -27 -1 -19 13 5 8 3 8 -7 0 -15 -15 -43 -17 -34 -4 3 6 -4 8
-15 6 -11 -2 -20 1 -20 6 0 6 -5 7 -10 4 -6 -4 -8 -12 -4 -18 3 -7 -1 -4 -9 5
-11 14 -16 15 -27 5 -10 -9 -11 -9 -6 1 4 7 1 12 -8 12 -9 0 -16 5 -16 10 0 6
-7 10 -16 10 -8 0 -12 5 -9 10 3 6 -1 10 -10 10 -11 0 -15 5 -11 15 3 8 0 14
-7 12 -7 -1 -11 3 -10 10 2 8 -4 10 -14 6 -13 -5 -15 -2 -10 11 4 9 3 15 -1
12 -5 -3 -14 4 -22 14 -8 10 -17 17 -21 15 -4 -3 -10 7 -13 20 -4 14 -11 23
-16 20 -5 -3 -11 -1 -15 5 -4 6 -12 7 -18 3 -7 -4 -6 1 2 10 12 15 12 17 -4
11 -13 -5 -16 -4 -11 4 4 7 2 12 -3 12 -6 0 -11 7 -11 15 0 8 -6 15 -14 15 -7
0 -22 11 -32 25 -13 17 -20 21 -26 12 -5 -8 -8 -7 -8 5 0 9 -5 20 -12 24 -7 5
-8 3 -3 -7 5 -8 -1 -6 -13 4 -11 11 -25 16 -30 13 -6 -3 -9 7 -8 23 1 18 -2
27 -8 24 -6 -3 3 9 19 27 17 18 25 30 18 26 -6 -3 -15 -1 -19 5 -4 8 -3 9 4 5
7 -4 20 7 33 28 12 20 26 36 32 36 8 0 7 3 -1 9 -11 7 -10 9 3 15 9 3 14 10
11 15 -4 5 -1 11 4 13 6 2 12 13 13 26 1 16 6 21 16 17 9 -3 12 -3 8 1 -4 4
-2 13 4 21 6 7 9 13 5 13 -3 0 3 9 14 20 12 12 17 26 13 36 -5 13 -3 15 7 9
10 -6 12 -3 7 14 -3 13 -3 20 0 17 4 -3 12 -1 20 5 10 9 11 15 1 26 -9 11 -9
13 2 11 7 -2 15 3 18 11 3 9 0 11 -8 6 -9 -6 -11 -4 -6 4 5 7 15 10 23 6 13
-4 13 -3 4 9 -9 11 -8 15 4 20 9 3 13 10 10 16 -3 6 1 13 9 16 9 3 16 10 16
16 0 5 -5 6 -12 2 -7 -4 -8 -3 -4 5 6 9 11 9 21 1 10 -8 14 -7 18 2 3 8 6 5 6
-6 1 -11 4 -16 8 -13 3 4 12 -1 20 -11 10 -11 12 -12 8 -2 -4 8 3 4 14 -10 11
-14 21 -28 21 -32 0 -4 7 -5 17 -1 13 5 15 2 11 -15 -4 -12 -2 -20 2 -17 5 3
11 1 15 -5 3 -5 1 -10 -5 -10 -7 0 -10 -7 -7 -15 4 -8 2 -17 -4 -20 -5 -4 -6
-12 -2 -18 4 -7 6 -21 5 -32 -2 -17 -1 -18 8 -5 10 13 11 12 6 -3 -3 -10 -6
-21 -6 -23 0 -3 -4 -2 -10 1 -6 3 -7 -1 -4 -9 3 -9 10 -16 16 -16 5 0 2 -7 -6
-16 -18 -17 -21 -28 -6 -19 6 3 10 2 10 -4 0 -5 -5 -13 -10 -16 -8 -5 -7 -12
2 -23 10 -12 10 -14 1 -8 -7 4 -13 2 -13 -3 0 -6 6 -11 13 -11 7 0 8 -3 2 -8
-9 -6 -12 -46 -6 -89 0 -6 10 -11 20 -10 11 0 17 5 15 9 -3 5 -10 5 -16 2 -6
-4 -8 -2 -5 3 4 6 18 8 32 5 18 -3 25 0 25 12 0 9 7 16 15 16 8 0 15 5 15 11
0 5 5 7 10 4 6 -3 10 1 10 10 0 9 3 14 8 12 9 -5 42 30 35 37 -6 6 14 10 31 7
5 -1 3 6 -4 16 -8 10 -11 15 -6 11 13 -11 44 25 33 40 -7 9 -5 11 8 6 13 -5
16 -4 11 4 -4 8 0 12 11 12 15 0 16 2 3 10 -13 8 -12 10 2 10 10 0 17 6 15 13
-1 6 4 11 11 9 8 -1 11 2 7 8 -3 5 -1 10 5 10 6 0 9 4 6 9 -3 5 0 11 8 14 11
5 22 36 28 84 1 7 5 10 9 8 3 -3 13 3 20 12 10 12 10 14 2 9 -19 -11 -16 5 5
21 10 8 11 11 2 7 -13 -7 -13 -5 -1 9 7 9 10 17 5 17 -5 0 -2 5 6 10 11 7 12
10 2 10 -10 0 -10 4 2 15 8 9 12 23 9 32 -5 13 -2 15 12 10 15 -6 16 -5 5 8
-7 8 -8 15 -2 15 13 0 12 103 -2 112 -7 5 -6 8 4 8 13 0 13 1 0 10 -13 9 -13
10 0 10 11 0 12 2 2 8 -7 5 -13 25 -14 45 -1 20 -5 37 -10 37 -5 0 -4 9 2 20
9 16 8 19 -6 13 -13 -5 -15 -3 -9 7 6 10 0 12 -24 8 -18 -3 -35 0 -38 5 -4 6
-1 7 8 2 12 -8 12 -6 0 8 -14 18 -26 23 -16 8 3 -6 -3 -10 -12 -11 -57 -3 -73
-6 -73 -17 0 -6 -9 -9 -22 -5 -13 3 -19 1 -15 -5 4 -6 -6 -16 -23 -22 -17 -5
-30 -15 -30 -20 0 -6 -7 -8 -15 -5 -9 4 -15 0 -15 -9 0 -11 -7 -15 -21 -12
-17 3 -19 1 -9 -10 8 -10 8 -15 -1 -21 -8 -4 -9 -3 -5 4 4 7 2 12 -3 12 -6 0
-11 -7 -11 -16 0 -8 -4 -12 -10 -9 -5 3 -10 2 -10 -4 0 -6 -7 -8 -15 -5 -10 4
-13 0 -10 -14 3 -16 -1 -20 -16 -17 -11 2 -17 0 -14 -6 4 -5 1 -9 -5 -9 -6 0
-8 -5 -4 -12 4 -6 3 -8 -3 -5 -6 4 -21 -7 -33 -23 -13 -17 -30 -30 -39 -30
-14 0 -14 -2 -1 -10 15 -9 13 -11 -12 -14 -7 -1 -12 -9 -12 -18 1 -10 -3 -16
-9 -15 -7 1 -13 -8 -15 -21 -2 -12 -8 -20 -13 -17 -9 6 -10 2 -13 -32 -1 -23
-18 -43 -30 -35 -5 3 -6 0 -3 -6 10 -15 -3 -43 -16 -35 -6 4 -7 1 -3 -6 5 -7
0 -19 -10 -27 -11 -9 -13 -13 -7 -9 20 10 3 -28 -19 -43 -16 -12 -17 -17 -6
-30 7 -10 9 -14 4 -10 -5 4 -15 1 -22 -7 -17 -17 -18 -28 -1 -20 6 4 4 0 -7
-9 -10 -9 -15 -20 -10 -27 5 -9 2 -10 -9 -6 -11 4 -15 1 -12 -14 2 -10 -1 -19
-6 -19 -6 0 -7 -4 -4 -10 3 -5 1 -10 -5 -10 -6 0 -8 -4 -5 -10 3 -5 2 -10 -4
-10 -13 0 -42 -60 -34 -73 3 -6 1 -7 -5 -3 -7 4 -13 2 -13 -3 -1 -6 -2 -16 -3
-21 0 -6 -7 -15 -15 -19 -8 -5 -10 -14 -6 -22 5 -8 5 -11 0 -7 -4 4 -14 0 -22
-10 -8 -9 -12 -11 -8 -4 3 6 2 12 -3 12 -6 0 -13 -7 -16 -16 -4 -10 -12 -14
-22 -10 -11 4 -15 2 -11 -8 4 -10 1 -13 -9 -9 -7 3 -14 0 -14 -5 0 -6 -9 -9
-19 -7 -14 2 -18 -1 -15 -10 4 -10 0 -13 -15 -10 -12 2 -19 0 -16 -6 4 -5 -1
-9 -10 -9 -10 0 -13 -5 -9 -12 5 -7 2 -9 -9 -5 -8 3 -18 0 -21 -8 -3 -8 -15
-19 -27 -25 -17 -10 -20 -9 -13 2 7 11 5 11 -9 0 -9 -8 -22 -10 -28 -6 -9 5
-10 2 -5 -11 6 -18 6 -18 -15 1 -20 17 -22 17 -16 1 6 -16 5 -16 -20 0 -19 13
-28 14 -31 5 -5 -16 -18 -16 -20 1 -2 22 -7 42 -15 54 -6 9 -3 11 9 6 13 -5
16 -3 11 10 -4 11 -2 14 7 11 8 -3 23 6 33 20 11 14 24 22 28 18 5 -4 5 -1 1
5 -4 8 3 23 16 36 13 13 22 29 20 35 -2 7 1 12 6 12 6 0 9 11 8 25 -2 13 1 22
5 19 5 -3 9 7 9 21 0 19 4 26 14 22 11 -4 12 1 7 21 -5 19 -3 31 8 40 9 8 11
11 4 8 -7 -4 -11 1 -10 14 1 11 5 20 10 20 5 0 4 7 -3 15 -10 12 -10 15 1 15
11 0 11 2 -1 10 -13 9 -13 10 0 10 13 0 13 1 0 10 -13 9 -13 10 0 10 13 0 13
1 0 10 -11 7 -11 10 -2 10 10 0 10 5 1 21 -8 16 -8 20 1 14 7 -4 10 -2 9 6 -2
8 0 24 5 36 4 13 3 30 -2 38 -4 9 -5 38 -2 65 4 32 2 51 -4 54 -6 2 -5 5 3 5
11 1 11 4 1 16 -9 11 -9 15 -1 15 7 0 9 5 6 10 -4 6 -1 18 7 27 11 14 11 16
-1 8 -11 -6 -13 -3 -9 16 3 13 9 33 13 43 5 12 5 17 -1 13 -5 -3 -10 3 -10 13
0 10 3 17 7 14 4 -2 7 19 7 48 1 31 6 54 14 59 10 7 10 9 1 9 -7 0 -13 5 -13
11 0 5 4 8 8 5 4 -2 8 10 8 28 0 20 -5 33 -13 33 -9 0 -10 -4 -2 -14 11 -13 5
-18 -16 -13 -5 1 -7 -1 -3 -5 3 -4 -1 -15 -10 -24 -13 -13 -21 -15 -31 -7 -12
9 -13 7 -8 -6 3 -10 2 -18 -3 -18 -6 0 -10 6 -10 13 0 6 -5 4 -11 -5 -5 -10
-15 -18 -22 -18 -7 0 -6 4 3 10 12 7 10 9 -7 7 -12 0 -19 -5 -16 -11 4 -5 -3
-7 -15 -4 -12 4 -20 2 -16 -3 3 -5 2 -9 -3 -10 -50 -6 -65 -4 -73 10 -7 12 -9
13 -10 2 0 -8 -3 -11 -7 -8 -3 4 -12 2 -19 -4 -8 -7 -14 -7 -19 1 -5 8 -10 8
-20 0 -9 -8 -15 -8 -20 0 -3 5 -11 10 -17 10 -6 0 -5 -7 3 -17 13 -17 13 -17
-7 0 -24 20 -40 22 -47 5 -4 -10 -6 -10 -6 0 -1 6 -8 12 -17 12 -8 0 -13 -4
-10 -8 3 -5 -1 -9 -9 -9 -8 0 -12 4 -9 9 3 4 -2 5 -10 2 -9 -3 -16 -11 -16
-16 0 -6 -6 -6 -14 1 -15 13 -32 -1 -21 -18 3 -6 -6 -8 -21 -5 -15 3 -23 1
-20 -5 3 -5 -2 -8 -11 -6 -10 1 -17 8 -16 14 3 10 -9 15 -28 13 -3 -1 -5 9 -4
21 3 30 -4 44 -21 51 -19 7 -66 -23 -61 -38 3 -8 -6 -11 -24 -10 -16 1 -32 -2
-35 -7 -3 -6 -11 -6 -19 1 -9 7 -15 8 -20 1 -4 -7 -15 -5 -31 5 -16 11 -24 12
-24 4 0 -7 -6 -6 -16 4 -8 9 -22 16 -31 16 -9 0 -13 6 -9 15 3 8 0 14 -6 12
-6 -1 -13 4 -16 12 -3 9 0 11 9 6 11 -6 12 -5 2 6 -16 16 -17 33 -1 23 7 -5 8
-3 3 7 -5 7 -8 26 -7 41 1 17 -3 28 -10 29 -7 0 -3 4 9 9 16 7 20 14 16 31 -5
17 -3 20 8 14 12 -8 12 -6 0 8 -9 12 -10 17 -2 17 7 0 9 5 6 10 -3 6 -2 10 4
10 5 0 13 9 16 20 4 11 11 18 16 15 5 -4 8 4 6 17 -1 15 3 22 12 20 12 -3 12
-1 0 14 -8 10 -9 15 -2 11 14 -9 45 32 36 46 -4 6 1 8 11 4 10 -4 15 -3 11 4
-9 14 15 40 29 32 6 -3 8 -3 4 2 -4 4 10 19 30 32 20 14 41 32 45 39 4 8 15
14 23 14 8 0 12 4 9 10 -4 6 1 7 11 3 13 -5 16 -3 11 9 -4 11 0 15 11 14 9 -2
23 4 30 13 11 13 12 13 7 1 -4 -10 -2 -10 8 2 11 14 16 15 27 5 10 -9 11 -9 5
2 -7 13 9 31 30 31 6 0 3 -5 -5 -10 -10 -7 -11 -10 -2 -10 7 0 15 6 18 14 3 9
12 12 21 9 10 -4 14 -2 9 5 -3 6 -2 13 4 17 5 3 10 1 10 -5 0 -6 5 -8 10 -5 6
4 8 11 5 16 -3 5 1 6 9 3 10 -4 16 -1 16 7 0 11 3 11 10 -1 7 -11 10 -11 10
-2 0 7 4 11 9 7 5 -3 12 3 14 12 4 15 5 15 6 -2 1 -17 3 -18 11 -5 6 10 10 11
10 3 0 -7 5 -13 11 -13 5 0 7 4 4 10 -3 6 1 7 9 4 9 -3 13 -11 9 -18 -4 -6 1
-5 10 3 9 7 17 9 17 3 0 -5 7 -13 16 -16 8 -3 13 -2 10 3 -8 12 19 22 30 11
15 -13 95 -20 88 -7 -4 8 -2 7 7 0 16 -16 33 -17 23 -2 -5 8 -1 8 13 0 14 -7
24 -7 33 2 10 10 11 9 5 -2 -6 -11 -4 -13 8 -8 10 3 17 2 17 -4 0 -6 8 -5 22
2 16 9 23 9 26 1 3 -9 9 -9 24 -1 16 8 19 8 13 -1 -6 -9 -3 -9 12 -2 11 7 25
7 35 1 11 -6 19 -5 23 1 5 8 11 8 20 0 9 -8 15 -8 20 0 3 6 11 7 18 3 16 -10
58 -10 64 0 3 5 9 3 13 -4 5 -7 18 -13 29 -14 11 -1 18 2 15 7 -7 11 3 10 28
-3 15 -8 19 -8 14 0 -4 6 -3 11 3 11 5 0 12 -6 14 -12 4 -9 6 -9 6 1 1 11 5
10 17 -5 14 -17 15 -17 10 -1 -5 15 -3 16 17 5 27 -15 58 -17 75 -5 7 6 12 6
12 0 0 -5 11 -10 25 -11 14 -1 31 -2 38 -3 6 0 22 2 35 5 16 3 22 0 22 -11 0
-15 2 -14 14 2 13 18 13 18 24 0 8 -16 13 -17 26 -6 12 10 16 11 16 1 0 -9 4
-9 17 1 14 12 16 12 8 0 -6 -11 -4 -13 7 -8 9 3 21 0 28 -6 10 -9 11 -9 6 1
-4 6 -3 12 3 12 5 0 12 -6 14 -12 4 -10 6 -10 6 0 1 6 6 12 12 12 5 0 8 -4 4
-9 -3 -6 6 -6 25 -1 18 5 32 5 36 -1 3 -5 10 -7 15 -4 5 4 9 1 9 -4 0 -6 5
-11 11 -11 5 0 7 6 4 13 -4 6 4 1 16 -13 l22 -25 -6 23 c-5 22 -4 22 11 9 29
-24 46 -32 37 -16 -5 8 2 5 15 -6 13 -11 20 -14 16 -7 -7 12 3 16 36 13 12 -2
16 3 12 13 -3 9 -13 16 -21 16 -8 0 -11 5 -8 10 3 6 1 10 -5 10 -6 0 -9 4 -6
9 7 11 -22 23 -35 15 -5 -3 -9 -2 -8 3 3 20 -2 34 -11 28 -5 -3 -10 0 -10 7 0
7 -10 18 -22 23 -13 6 -23 17 -23 25 0 9 -8 14 -18 12 -10 -2 -17 3 -17 13 0
9 -7 18 -15 21 -8 4 -12 11 -8 18 4 6 -2 4 -12 -4 -11 -9 -16 -10 -11 -2 4 7
2 12 -4 12 -6 0 -8 5 -5 10 3 6 1 10 -6 10 -6 0 -25 13 -40 30 -16 16 -29 26
-29 22 0 -4 -8 7 -16 25 -9 18 -19 32 -23 31 -3 0 -13 0 -21 1 -13 1 -13 2 0
12 12 9 11 10 -6 6 -17 -3 -20 0 -17 13 3 12 -3 19 -22 24 -14 4 -23 11 -20
16 4 6 -4 14 -17 19 -13 6 -19 10 -15 10 4 1 -3 12 -15 25 -13 13 -26 21 -30
19 -5 -2 -8 3 -8 12 0 9 -16 25 -35 36 -19 12 -35 23 -35 26 0 2 5 1 12 -3 7
-4 8 -3 4 4 -4 7 -14 12 -22 12 -8 0 -12 5 -9 10 3 6 -1 10 -9 10 -8 0 -17 8
-20 18 -3 9 -19 23 -36 30 -16 8 -30 20 -30 29 0 8 -9 17 -20 20 -11 3 -17 9
-14 14 3 5 -2 9 -11 9 -9 0 -13 5 -10 10 3 6 -3 10 -15 10 -12 0 -19 4 -16 8
2 4 1 14 -5 22 -7 13 -9 13 -9 0 -1 -12 -3 -11 -11 3 -6 9 -14 15 -20 12 -5
-4 -9 -1 -9 5 0 6 -4 9 -9 5 -5 -3 -12 -1 -16 5 -4 6 -11 7 -17 4 -7 -5 -9 -2
-6 8 4 8 0 15 -8 15 -7 0 -11 -5 -8 -11 3 -6 -1 -3 -10 8 -8 10 -22 16 -31 13
-9 -4 -15 -1 -15 9 0 10 -6 14 -14 11 -7 -3 -19 0 -25 6 -7 7 -11 7 -11 1 0
-6 -17 -9 -37 -7 -21 1 -40 -3 -45 -10 -6 -9 -8 -9 -8 2 0 11 -3 11 -17 0 -9
-8 -14 -9 -10 -3 4 6 -2 10 -16 8 -12 -1 -22 -3 -22 -4 0 -1 -8 -3 -17 -5 -11
-2 -18 3 -18 13 0 12 -3 13 -8 5 -11 -18 -53 12 -46 32 4 8 10 13 14 10 4 -3
4 11 0 30 -4 19 -4 33 0 30 5 -3 7 13 5 35 -2 22 1 40 6 40 5 0 9 5 9 11 0 5
-5 7 -11 3 -6 -3 -4 5 5 19 13 20 14 26 4 30 -9 4 -10 6 -1 6 7 1 10 7 7 15
-3 8 0 17 6 21 9 6 9 10 -1 16 -11 7 -9 9 6 10 l20 0 -20 9 -20 9 20 0 c15 1
17 3 6 10 -11 7 -9 11 8 20 12 7 27 9 33 5 7 -4 8 -3 4 5 -5 7 -16 9 -28 5
-14 -4 -18 -2 -14 5 4 6 2 19 -3 28 -6 10 -11 13 -11 7 0 -11 -30 -16 -30 -5
0 4 -12 8 -26 9 -15 1 -34 8 -42 15 -13 10 -15 9 -10 -4 4 -11 0 -15 -15 -14
-11 1 -23 7 -25 14 -3 9 -8 9 -20 -1 -12 -10 -14 -10 -8 0 4 6 3 12 -1 12 -5
0 -15 -6 -22 -12 -11 -11 -12 -10 -6 1 6 11 4 13 -8 8 -10 -4 -17 -1 -17 6 0
8 -3 8 -8 2 -4 -6 -22 -8 -42 -4 -19 3 -29 7 -21 8 8 0 11 4 8 7 -4 4 -13 1
-22 -6 -10 -8 -15 -9 -15 -1 0 6 -5 11 -11 11 -5 0 -7 -5 -3 -11 4 -7 -1 -7
-16 1 -15 8 -20 8 -16 1 4 -6 3 -11 -3 -11 -5 0 -11 6 -14 13 -3 9 -7 9 -20
-2 -10 -7 -17 -9 -17 -3 0 5 -7 13 -16 16 -14 5 -15 4 -4 -9 12 -14 10 -14
-16 -5 -32 13 -34 13 -51 -2 -9 -8 -13 -7 -13 3 0 11 -2 11 -10 -1 -8 -13 -10
-12 -10 4 0 20 0 20 -15 0 -8 -11 -15 -14 -15 -6 0 6 -5 12 -11 12 -5 0 -7 -4
-4 -10 3 -5 2 -10 -4 -10 -5 0 -11 6 -14 13 -3 9 -7 9 -20 -2 -11 -8 -17 -9
-17 -3 0 6 -7 9 -15 6 -8 -4 -12 -11 -8 -17 4 -6 1 -7 -6 -3 -7 5 -10 15 -7
25 5 12 2 11 -9 -3 -9 -12 -15 -15 -15 -7 0 10 -3 11 -14 2 -10 -9 -16 -9 -21
-1 -5 8 -11 8 -21 -1 -11 -9 -14 -9 -14 0 0 7 -5 9 -12 4 -17 -10 -39 -13 -34
-4 3 4 -4 7 -14 7 -10 0 -16 -4 -14 -8 3 -4 1 -8 -5 -8 -5 0 -11 6 -14 13 -3
9 -7 9 -20 -2 -10 -7 -17 -9 -17 -3 0 5 -7 13 -16 16 -14 5 -15 4 -4 -9 12
-14 10 -14 -16 -5 -31 12 -31 12 -56 -1 -12 -6 -18 -6 -18 1 0 5 -8 10 -17 10
-15 0 -16 -2 -3 -10 12 -7 10 -9 -7 -7 -12 0 -19 5 -17 9 3 4 -7 8 -21 8 -18
0 -24 4 -19 13 5 7 0 6 -11 -3 -11 -9 -16 -10 -11 -2 4 7 2 12 -4 12 -6 0 -8
6 -4 13 6 10 4 10 -7 0 -7 -7 -17 -13 -21 -13 -4 0 -7 6 -6 13 2 6 -3 11 -9 9
-7 -1 -13 4 -13 12 0 8 -10 13 -22 12 -17 -1 -22 4 -20 17 2 9 -2 17 -8 17 -5
0 -10 -4 -10 -10 0 -5 -9 -2 -19 8 -37 33 -46 39 -59 34 -6 -2 -15 3 -18 12
-3 9 -13 16 -21 16 -8 0 -12 4 -9 9 3 5 -1 12 -10 15 -10 4 -13 2 -8 -7 5 -8
2 -8 -9 2 -9 7 -15 17 -12 21 3 5 -2 7 -12 6 -9 -2 -17 -12 -18 -24 -1 -13 3
-19 9 -15 6 4 5 -1 -3 -10 -11 -14 -11 -17 0 -17 11 0 11 -2 -1 -10 -13 -8
-13 -10 -1 -10 11 0 10 -4 -5 -16 -10 -8 -12 -12 -4 -8 12 7 13 5 3 -8 -7 -8
-9 -19 -5 -23 4 -5 3 -6 -3 -3 -5 3 -16 0 -23 -8 -8 -9 -9 -14 -2 -14 6 0 8
-5 5 -10 -4 -6 -11 -8 -16 -5 -5 4 -9 1 -9 -4 0 -6 -9 -20 -19 -30 -14 -14
-22 -16 -31 -7 -10 8 -11 8 -7 0 4 -7 0 -15 -9 -18 -8 -3 -12 -2 -9 4 3 6 0
10 -7 10 -9 0 -9 3 2 10 12 8 12 10 1 10 -10 0 -11 3 -2 14 9 10 9 16 1 21 -8
5 -8 11 1 21 9 11 9 14 0 14 -9 0 -9 5 -1 20 6 11 8 25 5 30 -3 6 -1 10 6 10
9 0 9 3 0 14 -9 11 -8 15 6 20 14 6 15 9 4 15 -9 6 -10 11 -2 15 6 4 9 12 6
17 -4 5 -2 9 3 9 5 0 8 14 6 31 -2 18 0 28 6 24 6 -3 7 1 4 9 -4 10 -1 16 7
16 11 0 11 3 -1 10 -11 7 -11 10 -2 10 7 0 10 5 7 10 -3 6 0 10 7 10 9 0 9 3
-2 10 -10 6 -11 10 -2 10 6 0 12 11 12 25 0 14 6 25 13 25 8 0 7 4 -3 10 -8 5
-10 10 -5 10 6 0 11 10 12 22 1 11 7 24 14 28 8 6 8 9 -2 13 -10 4 -10 6 -1 6
6 1 12 10 12 21 0 11 6 20 13 20 9 0 8 3 -2 9 -10 6 -10 10 -1 16 9 6 9 10 -1
16 -11 7 -11 9 3 9 12 0 15 6 10 22 -3 13 -1 19 5 15 6 -4 9 4 7 18 -1 14 2
25 7 25 6 0 8 4 4 9 -3 6 3 14 12 20 10 6 14 11 10 11 -5 0 -1 7 7 16 9 8 13
20 10 26 -4 6 -3 8 3 5 15 -10 60 53 54 77 -1 5 5 6 14 3 9 -4 15 -1 15 9 0 8
5 12 10 9 6 -3 10 -4 10 -1 0 3 -15 13 -32 22 -18 9 -30 13 -26 9 11 -11 -54
-57 -71 -50 -11 4 -11 2 -2 -8 9 -11 7 -17 -6 -28 -11 -9 -14 -10 -9 -1 4 6 2
12 -3 12 -6 0 -11 -7 -11 -16 0 -8 -4 -12 -10 -9 -5 3 -10 0 -10 -7 0 -7 -9
-19 -21 -26 -17 -11 -20 -11 -14 0 3 7 -1 4 -9 -6 -9 -11 -16 -23 -16 -28 0
-4 -6 -5 -13 -3 -6 3 -21 -6 -31 -20 -10 -14 -24 -25 -31 -25 -7 0 -16 -7 -19
-16 -3 -8 -10 -13 -15 -10 -5 3 -12 -1 -15 -10 -3 -8 -10 -13 -15 -9 -5 3 -13
0 -17 -6 -5 -8 -3 -9 7 -4 12 8 12 6 0 -8 -7 -9 -17 -14 -22 -11 -5 3 -9 0 -9
-5 0 -6 -6 -10 -12 -8 -7 1 -12 -6 -12 -15 1 -10 -2 -15 -7 -12 -5 3 -9 -1 -9
-8 0 -9 -3 -9 -10 2 -9 14 -15 7 -11 -14 1 -5 -7 -6 -19 -3 -11 3 -18 1 -15
-3 3 -5 0 -12 -6 -16 -7 -4 -9 -3 -6 2 3 6 2 16 -4 24 -6 11 -9 12 -9 2 0 -7
-12 0 -27 15 -17 18 -24 22 -20 10 6 -17 6 -17 -17 0 -13 10 -22 21 -19 26 2
4 -3 7 -11 7 -9 0 -16 5 -16 11 0 5 -5 7 -10 4 -6 -4 -10 -3 -9 2 3 19 -2 34
-10 28 -5 -3 -12 3 -16 14 -3 10 -15 27 -27 37 -12 11 -18 13 -13 5 6 -10 4
-12 -4 -6 -7 4 -11 15 -8 24 3 14 -4 18 -34 20 -25 1 -39 -3 -39 -10 0 -7 -3
-9 -6 -6 -11 11 -45 -13 -37 -26 5 -8 2 -8 -9 1 -13 10 -17 10 -22 -4 -5 -13
-9 -14 -21 -4 -13 11 -14 10 -9 -5 5 -13 4 -16 -5 -11 -11 7 -99 -49 -93 -59
1 -3 0 -5 -3 -5 -11 0 -45 -41 -40 -49 3 -5 -5 -7 -17 -3 -14 3 -19 1 -14 -6
9 -16 -6 -21 -32 -11 -18 7 -21 12 -13 27 5 10 6 24 1 32 -4 7 -6 20 -2 28 4
11 2 13 -8 7 -10 -6 -12 -4 -7 9 4 9 0 27 -8 40 -8 12 -12 26 -8 29 3 4 2 7
-4 7 -5 0 -10 6 -11 13 -3 38 -8 53 -20 60 -7 5 -10 17 -7 28 5 13 2 19 -7 17
-8 -2 -12 4 -10 16 2 11 -1 15 -7 11 -6 -3 -12 -1 -12 4 -1 6 -2 16 -3 21 0 6
-8 15 -16 20 -12 8 -12 10 5 10 19 1 19 1 2 11 -10 6 -14 15 -10 22 5 9 3 9
-8 0 -13 -10 -16 -10 -16 0 -2 33 -13 69 -27 83 -9 9 -14 19 -11 24 3 5 1 10
-5 12 -5 1 -11 15 -12 29 -1 17 -7 25 -15 22 -17 -7 -17 14 0 20 7 4 3 8 -10
12 -13 4 -20 11 -17 16 3 5 -2 9 -11 9 -10 0 -15 6 -12 13 3 7 -4 12 -19 12
-13 0 -26 -5 -28 -11z m149 -184 c3 -5 1 -10 -4 -10 -6 0 -11 5 -11 10 0 6 2
10 4 10 3 0 8 -4 11 -10z m-20 -1100 c-3 -5 3 -10 15 -10 12 0 19 -4 16 -9 -6
-9 35 -31 62 -32 10 0 12 -3 5 -6 -10 -3 -9 -8 2 -20 17 -17 20 -33 5 -33 -5
0 -10 -5 -10 -11 0 -5 6 -7 13 -4 6 4 4 0 -6 -8 -13 -11 -15 -16 -5 -19 8 -3
5 -9 -10 -17 -12 -6 -22 -8 -21 -4 4 23 -3 31 -23 27 -13 -2 -18 -2 -11 2 10
4 10 8 0 19 -7 7 -15 11 -19 8 -5 -2 -8 4 -8 14 0 15 -2 16 -10 3 -7 -11 -10
-11 -10 -2 0 8 -5 10 -12 6 -8 -5 -7 0 2 11 9 11 10 16 3 11 -9 -5 -13 -1 -13
13 0 10 -2 26 -5 33 -4 9 4 19 17 26 30 14 30 14 23 2z m-329 -46 c8 3 14 1
14 -5 0 -6 5 -7 10 -4 6 3 10 2 10 -3 0 -5 12 -14 26 -20 14 -7 23 -8 19 -2
-3 5 -1 10 4 10 6 0 11 -7 11 -16 0 -8 5 -12 10 -9 6 4 17 2 25 -5 9 -8 15 -8
20 0 5 8 11 8 21 -1 7 -6 20 -9 28 -6 9 4 13 0 11 -11 -2 -9 -4 -18 -5 -19 -3
-4 -7 -20 -9 -34 0 -5 -7 -7 -13 -3 -10 6 -10 4 0 -8 8 -10 9 -19 3 -22 -5 -3
-8 -19 -7 -35 1 -17 -2 -27 -7 -24 -6 3 -8 -7 -5 -25 2 -17 1 -29 -4 -26 -12
8 -10 -10 4 -24 8 -8 8 -12 1 -12 -6 0 -13 -9 -16 -20 -3 -11 -1 -20 3 -20 11
0 5 -31 -9 -59 -8 -14 -8 -22 -1 -26 7 -4 7 -11 2 -18 -5 -7 -8 -20 -7 -29 2
-11 -2 -15 -11 -11 -8 3 -14 0 -14 -6 0 -6 -5 -11 -11 -11 -5 0 -7 5 -3 12 5
7 2 9 -9 5 -9 -3 -18 0 -21 9 -3 8 -13 14 -21 14 -9 0 -13 5 -10 10 4 6 3 10
-2 9 -26 -4 -44 2 -37 14 6 9 4 9 -8 -1 -14 -11 -18 -10 -31 8 -13 18 -15 19
-21 4 -5 -13 -9 -14 -21 -4 -8 7 -15 11 -16 9 -6 -31 -6 -38 -1 -35 10 6 32
-21 24 -28 -3 -4 2 -4 12 0 13 5 17 4 12 -4 -4 -7 1 -10 14 -7 11 2 18 0 15
-6 -4 -5 -1 -9 5 -9 6 0 8 -5 4 -12 -6 -10 -5 -10 7 -1 12 10 18 9 29 -7 10
-14 16 -16 22 -7 5 8 8 6 8 -6 0 -10 5 -15 10 -12 9 5 14 -6 12 -26 -1 -3 5
-6 13 -6 7 0 11 7 8 16 -2 9 2 6 9 -7 8 -12 18 -19 23 -15 4 4 5 0 2 -9 -4
-13 -2 -15 10 -11 11 4 14 2 9 -5 -4 -7 -3 -12 1 -12 5 0 8 -13 7 -30 -1 -16
2 -30 6 -30 5 0 10 -10 12 -22 3 -20 76 -73 86 -63 6 6 34 -23 36 -38 1 -6 5
-17 9 -24 4 -6 3 -14 -3 -18 -5 -3 -10 -11 -10 -16 0 -6 5 -7 12 -3 7 5 8 3 4
-5 -5 -7 -14 -10 -22 -7 -8 3 -13 2 -13 -2 1 -4 1 -16 0 -27 -1 -17 -3 -18
-11 -5 -8 12 -10 10 -10 -10 0 -14 -4 -20 -8 -15 -11 15 -32 17 -32 2 0 -8 -4
-7 -10 3 -6 9 -10 10 -10 3 0 -6 -9 -11 -19 -10 -11 0 -17 5 -15 9 3 4 -2 8
-10 8 -9 0 -16 5 -16 10 0 6 -10 10 -22 10 -19 0 -20 2 -8 10 8 5 10 10 4 10
-5 0 -16 -6 -23 -12 -11 -10 -13 -10 -7 0 4 6 2 12 -3 12 -6 0 -11 -6 -11 -12
0 -9 -4 -8 -10 2 -9 13 -11 13 -19 1 -7 -11 -13 -12 -23 -4 -7 5 -21 13 -30
16 -13 5 -15 2 -11 -11 6 -15 5 -16 -12 -2 -11 9 -16 10 -11 3 9 -17 -1 -17
-18 -1 -11 11 -11 15 3 26 9 7 10 11 4 7 -18 -9 -16 3 2 21 8 9 13 26 11 40
-3 13 0 27 6 30 7 5 8 2 3 -6 -5 -8 -4 -11 3 -6 6 4 9 13 5 21 -3 8 0 15 7 15
10 0 10 3 0 15 -7 8 -8 15 -3 15 5 0 10 6 11 13 2 21 7 42 15 54 4 6 3 14 -3
18 -6 4 -8 11 -5 16 9 14 -29 11 -44 -3 -11 -11 -13 -10 -7 2 4 8 -2 4 -13 -9
-12 -13 -21 -18 -21 -12 0 7 -5 9 -10 6 -6 -4 -8 -11 -4 -16 3 -5 2 -9 -3 -8
-20 3 -33 -2 -31 -13 2 -7 -3 -12 -9 -10 -7 1 -13 -5 -13 -14 0 -10 -5 -14
-16 -10 -8 3 -12 2 -9 -3 7 -12 -37 -61 -54 -61 -7 0 -9 -4 -6 -10 3 -5 1 -10
-4 -10 -6 0 -11 -8 -11 -17 0 -9 -3 -14 -6 -10 -4 3 -14 -3 -24 -15 -15 -19
-17 -19 -23 -4 -5 12 -3 15 6 10 9 -5 9 -4 0 7 -7 7 -13 24 -13 37 0 15 4 21
13 17 6 -4 1 3 -13 14 -24 20 -24 22 -6 33 16 9 17 13 5 22 -16 13 -19 48 -4
58 6 5 5 8 -4 8 -8 0 -11 7 -8 19 3 11 -2 30 -11 42 -13 19 -13 22 -1 17 11
-4 14 1 13 21 0 15 7 31 18 39 10 7 18 18 18 23 0 6 6 17 13 24 30 34 35 43
30 49 -4 3 -1 6 5 6 7 0 12 7 12 15 0 8 7 15 15 15 8 0 14 6 13 13 -2 6 3 11
11 9 12 -3 12 0 1 12 -10 14 -10 16 5 16 11 0 15 5 12 14 -4 10 -1 13 9 9 8
-3 14 1 14 11 0 9 6 16 13 16 8 0 7 4 -3 10 -11 7 -12 10 -2 10 13 0 49 30 45
37 -9 10 0 23 15 23 13 0 14 2 4 9 -10 6 -8 10 8 14 12 3 19 10 15 16 -3 6 -1
11 5 11 6 0 8 5 5 10 -9 14 -12 99 -3 94 4 -2 9 0 13 6 3 5 -1 10 -9 10 -14 0
-14 3 2 18 16 17 18 17 31 -1 7 -10 19 -16 27 -13z m-1829 -364 c8 0 11 -4 8
-10 -6 -9 8 -14 28 -11 4 0 7 -5 7 -13 0 -8 5 -18 12 -22 7 -4 8 -3 4 4 -5 8
-2 10 8 6 9 -3 14 -9 12 -13 -2 -3 3 -15 11 -26 16 -20 16 -20 9 0 -5 17 -3
16 12 -4 11 -13 24 -21 30 -17 6 4 9 -3 6 -16 -2 -13 -2 -18 1 -11 4 7 16 1
34 -18 15 -16 31 -26 34 -22 4 3 7 -1 7 -10 0 -9 7 -17 16 -17 8 0 13 -4 9 -9
-3 -6 3 -8 15 -6 11 2 19 1 19 -3 -1 -4 -1 -14 0 -22 1 -13 2 -13 11 0 8 12
10 10 10 -8 0 -14 4 -21 11 -17 5 4 24 -7 40 -24 16 -18 34 -29 39 -26 6 4 10
1 10 -5 0 -6 7 -18 15 -26 8 -9 15 -12 15 -8 0 4 10 -4 23 -18 12 -13 28 -23
35 -20 8 2 10 -2 5 -14 -4 -10 -2 -15 4 -11 5 3 17 -3 27 -14 13 -15 14 -24 6
-34 -8 -10 -7 -14 2 -18 10 -4 10 -8 -2 -16 -13 -10 -13 -12 0 -21 9 -5 10
-10 3 -10 -6 0 -10 -11 -8 -25 1 -14 -2 -25 -8 -25 -5 0 -4 -7 3 -15 10 -12
10 -15 -1 -15 -11 0 -11 -2 1 -10 13 -9 13 -10 0 -10 -13 0 -13 -1 0 -10 9 -6
11 -10 3 -10 -7 0 -10 -6 -7 -14 3 -8 -2 -28 -11 -45 -9 -18 -13 -37 -9 -43 5
-7 3 -8 -6 -3 -10 6 -12 3 -8 -13 4 -13 2 -20 -4 -16 -5 3 -12 -3 -15 -15 -3
-12 -10 -21 -17 -21 -7 0 -6 -4 2 -9 11 -7 11 -9 -2 -14 -9 -4 -18 -25 -22
-56 -4 -33 -10 -48 -18 -44 -6 3 -6 1 1 -7 10 -11 10 -17 0 -29 -9 -12 -9 -13
1 -7 6 4 12 3 12 -3 0 -5 -5 -13 -10 -16 -8 -5 -8 -11 0 -20 8 -10 7 -14 -2
-18 -10 -4 -10 -7 1 -15 8 -6 9 -12 3 -16 -11 -7 -11 -24 1 -43 4 -6 4 -14 -1
-17 -5 -3 -8 -31 -8 -63 1 -32 -3 -61 -9 -65 -6 -5 -4 -8 5 -8 9 0 5 -6 -10
-17 -24 -17 -38 -17 -33 0 2 4 -3 7 -11 7 -8 0 -18 5 -22 12 -5 7 -3 8 6 3 7
-5 5 4 -6 18 -10 15 -25 24 -31 22 -7 -2 -12 -1 -11 3 1 4 -3 17 -10 28 -6 12
-8 24 -5 28 3 3 -1 6 -10 6 -10 0 -17 8 -17 21 0 11 -4 17 -10 14 -5 -3 -10 1
-10 10 0 9 -4 13 -10 10 -5 -3 -10 3 -10 15 0 12 -4 19 -9 15 -5 -3 -13 4 -16
16 -5 15 -10 18 -15 9 -5 -8 -9 -7 -14 5 -3 9 -13 15 -20 12 -19 -7 -29 19
-16 43 11 21 2 59 -10 40 -4 -6 -7 2 -6 19 1 18 6 29 12 27 6 -2 11 2 11 10 0
7 -4 11 -8 9 -4 -3 -8 25 -9 62 -1 100 -3 123 -10 123 -3 0 -7 12 -8 27 -1 15
-6 31 -12 37 -6 6 -6 14 1 23 7 8 8 13 1 13 -5 0 -13 7 -16 16 -3 8 -2 13 3
10 5 -4 7 3 4 14 -3 11 -10 17 -15 14 -6 -4 -6 0 0 12 7 14 6 24 -3 37 -7 9
-10 29 -7 43 3 19 1 25 -7 20 -15 -9 -14 7 1 22 9 9 9 12 0 12 -7 0 -12 10
-12 23 0 13 -6 29 -12 36 -10 11 -10 13 0 7 6 -4 12 -2 12 3 0 6 -6 11 -12 12
-9 0 -9 2 1 6 9 4 10 8 2 12 -5 4 -11 21 -13 39 -1 18 -6 32 -11 32 -5 0 -4 7
3 15 9 10 9 15 1 15 -6 0 -10 3 -10 8 4 26 -2 52 -12 46 -8 -4 -8 0 0 15 10
17 9 22 -2 27 -9 3 -13 13 -10 25 3 10 0 19 -6 19 -6 0 -11 12 -11 26 0 14 -4
23 -8 20 -5 -3 -9 1 -9 9 0 8 4 12 9 9 4 -3 8 -1 8 5 0 5 -5 11 -11 13 -5 2
-7 11 -3 21 6 16 10 14 32 -13 14 -16 31 -30 39 -30z m3129 -72 c5 -7 3 -8 -6
-3 -9 5 -11 4 -6 -4 4 -6 11 -9 16 -6 13 8 50 -27 50 -48 0 -9 10 -21 23 -26
12 -5 21 -11 20 -15 -6 -15 -2 -27 7 -21 6 3 10 -3 10 -15 0 -12 5 -18 10 -15
6 3 10 -3 10 -15 0 -12 5 -18 10 -15 6 3 10 -3 10 -13 0 -21 22 -45 33 -37 4
3 5 2 3 -1 -3 -3 -1 -17 5 -31 6 -16 6 -22 -1 -18 -9 6 -15 -8 -11 -29 1 -5
-5 -6 -14 -2 -9 3 -13 2 -10 -3 3 -5 1 -12 -5 -16 -6 -4 -8 -11 -5 -16 3 -5
-2 -6 -11 -2 -13 5 -15 3 -9 -7 6 -10 4 -12 -9 -7 -9 4 -14 3 -11 -2 3 -5 1
-12 -5 -16 -5 -3 -10 0 -10 7 -1 7 -8 2 -16 -12 -8 -14 -13 -17 -10 -7 3 9 1
17 -4 17 -6 0 -10 -3 -10 -8 0 -4 -9 -13 -21 -20 -12 -8 -19 -9 -15 -4 3 5 -8
9 -24 8 -22 -1 -29 -5 -25 -16 3 -10 1 -9 -9 3 -12 15 -14 16 -20 2 -3 -8 -11
-15 -18 -14 -10 0 -10 2 0 6 20 8 14 18 -13 18 -14 0 -25 -6 -25 -13 0 -7 -5
-10 -10 -7 -6 4 -8 9 -6 13 2 4 -10 7 -27 7 -17 0 -32 -6 -35 -13 -3 -9 -8 -7
-20 6 -10 10 -13 12 -9 5 7 -9 2 -10 -21 -3 -17 4 -34 5 -37 2 -4 -4 -6 12 -3
35 2 24 -1 45 -7 47 -5 2 -1 5 10 5 16 1 17 3 5 11 -12 7 -10 11 10 19 14 5
19 10 11 10 -9 1 -7 7 8 20 13 11 20 25 16 31 -3 6 -3 9 2 8 4 -2 18 7 31 20
12 12 19 22 15 22 -4 0 3 7 15 16 12 8 19 20 16 26 -4 7 -2 8 4 4 7 -4 12 -2
12 3 0 6 5 10 12 9 7 -2 12 4 13 12 1 8 6 14 13 13 7 -2 11 0 11 5 -3 19 2 33
11 27 6 -3 10 -1 10 5 0 9 48 67 57 70 1 0 5 -5 9 -12z m-602 -60 c-5 -7 10
-12 28 -9 4 0 5 -8 3 -19 -2 -11 0 -22 6 -25 5 -4 3 -13 -6 -21 -13 -13 -13
-18 2 -42 9 -15 13 -24 8 -20 -4 4 -15 2 -23 -5 -13 -10 -14 -9 -7 3 6 12 5
13 -6 3 -15 -15 -33 -17 -24 -4 3 5 1 12 -5 16 -6 4 -8 11 -5 16 3 5 0 6 -7 4
-9 -4 -14 2 -14 15 0 11 3 20 7 20 3 0 5 11 4 25 -2 14 1 27 6 31 5 3 7 9 4
14 -3 5 3 8 14 7 11 0 17 -5 15 -9z m673 -10 c-3 -8 -6 -5 -6 6 -1 11 2 17 5
13 3 -3 4 -12 1 -19z m-531 -97 c-2 -3 2 -12 10 -19 8 -7 14 -10 14 -7 0 3 6
0 14 -7 8 -7 12 -16 9 -20 -2 -5 2 -8 10 -8 18 0 49 -34 40 -44 -4 -4 -1 -11
7 -17 13 -8 13 -10 0 -19 -9 -6 -11 -13 -5 -17 14 -11 18 -36 5 -28 -6 4 -11
1 -9 -6 3 -29 -2 -48 -17 -63 -8 -9 -13 -20 -9 -25 13 -21 -55 -35 -83 -17
-10 6 -10 11 -1 22 9 11 8 14 -2 14 -11 0 -11 2 1 10 13 9 13 10 0 10 -13 0
-13 1 0 10 13 9 13 10 0 10 -13 0 -13 1 0 10 12 8 12 10 1 10 -10 0 -11 3 -3
13 12 14 11 35 -1 55 -5 7 -3 12 4 12 8 0 8 4 -1 15 -10 12 -10 15 1 16 10 0
11 2 2 6 -7 2 -13 20 -13 39 0 24 -4 33 -11 28 -7 -4 -10 -1 -7 7 3 8 10 13
16 12 7 -2 9 4 5 15 -6 15 -5 15 10 3 9 -7 15 -16 13 -20z m-1226 -52 c0 -5 6
-7 13 -3 7 5 6 0 -3 -11 -9 -11 -10 -16 -2 -11 6 4 13 4 13 -1 7 -47 6 -63 -2
-63 -5 0 -9 -7 -9 -15 0 -13 -4 -14 -21 -4 -17 9 -20 8 -13 -3 6 -10 5 -11 -8
-1 -8 7 -17 11 -20 8 -3 -3 -4 5 -4 18 1 13 9 32 19 41 9 10 14 22 11 28 -5 7
-2 8 6 3 10 -6 12 -4 7 8 -3 10 -2 17 3 17 6 0 10 -5 10 -11z m1029 -51 c-1
-1 3 -13 10 -25 9 -18 9 -23 -1 -23 -9 0 -9 -3 2 -10 13 -8 13 -10 1 -10 -11
0 -12 -3 -4 -11 8 -8 6 -16 -9 -31 -19 -19 -20 -19 -39 -2 -19 17 -20 17 -13
0 6 -16 5 -17 -14 -5 -16 10 -18 16 -10 26 8 10 6 13 -8 14 -17 1 -17 2 -1 6
9 2 17 11 17 19 0 8 5 12 10 9 6 -3 10 -2 10 3 0 5 9 12 20 15 11 3 20 9 19
14 -3 15 1 26 7 21 3 -4 5 -8 3 -10z m-237 -33 c10 -4 15 -11 12 -16 -3 -5 1
-9 8 -9 9 -1 7 -5 -4 -14 -10 -7 -15 -16 -11 -19 3 -4 1 -7 -5 -7 -7 0 -12 5
-12 11 0 5 -4 7 -10 4 -5 -3 -10 2 -11 12 0 10 -2 25 -4 34 -3 17 6 18 37 4z
m348 -21 c0 -8 4 -13 8 -10 5 3 9 -1 9 -9 0 -8 -5 -11 -11 -8 -7 5 -7 2 0 -8
18 -23 23 -80 7 -86 -11 -4 -10 -8 4 -20 10 -8 12 -11 4 -7 -11 5 -13 3 -7
-11 5 -14 4 -16 -7 -7 -8 7 -18 8 -22 4 -5 -4 -5 -2 -2 4 4 7 0 15 -8 18 -13
5 -14 10 -4 28 9 17 9 23 -1 26 -9 3 -9 6 1 13 12 7 12 9 0 9 -11 0 -11 3 0
16 10 13 10 17 -2 25 -11 7 -11 9 0 9 10 0 11 3 3 13 -8 10 -6 13 9 14 11 1
19 -5 19 -13z m2794 -362 c3 -5 -1 -9 -9 -9 -8 0 -12 4 -9 9 3 4 7 8 9 8 2 0
6 -4 9 -8z m-2006 -83 c-7 -5 -9 -9 -4 -9 5 0 4 -6 -1 -12 -17 -23 -24 -50
-10 -42 9 6 9 5 0 -8 -7 -8 -10 -18 -6 -21 3 -4 -1 -7 -11 -7 -9 0 -14 -4 -11
-10 3 -5 -3 -10 -15 -10 -12 0 -18 5 -15 10 3 6 3 10 -2 10 -4 0 -13 15 -19
34 -9 29 -8 33 4 28 10 -3 13 -1 8 6 -5 8 0 12 14 12 12 0 18 4 15 10 -4 6 -3
10 2 9 29 -5 45 2 39 17 -6 14 -4 15 9 4 13 -11 13 -15 3 -21z m842 -54 c0 -2
-10 -9 -22 -15 -22 -11 -22 -10 -4 4 21 17 26 19 26 11z m-305 -124 c-3 -5 -1
-12 5 -16 5 -3 10 1 10 9 0 19 16 21 26 4 5 -7 2 -9 -7 -4 -8 4 -5 0 5 -8 15
-12 16 -16 5 -16 -8 0 -10 -3 -4 -8 6 -4 10 -23 10 -42 -1 -19 2 -42 6 -51 4
-8 4 -21 -1 -29 -6 -9 -5 -17 3 -22 8 -5 9 -8 1 -8 -7 0 -10 -13 -9 -30 2 -22
-2 -30 -14 -31 -10 0 -11 -2 -3 -6 6 -2 12 -11 12 -19 0 -9 -4 -13 -8 -10 -5
3 -7 -11 -6 -30 2 -19 -1 -34 -8 -34 -7 0 -7 -4 1 -14 9 -10 8 -15 -4 -20 -8
-3 -15 -15 -15 -26 0 -14 -4 -19 -12 -14 -7 5 -9 2 -5 -9 4 -12 2 -14 -10 -10
-10 4 -14 2 -10 -4 4 -6 0 -16 -8 -23 -13 -10 -19 -9 -34 8 -10 12 -22 18 -26
14 -5 -4 -6 0 -3 8 4 12 -1 16 -22 15 -23 0 -26 -2 -17 -14 9 -12 9 -13 0 -8
-7 5 -21 -1 -33 -13 -11 -11 -20 -15 -20 -9 0 5 -5 7 -10 4 -6 -4 -8 -11 -5
-16 4 -5 1 -9 -4 -9 -6 0 -11 7 -11 16 0 8 -3 13 -7 11 -5 -2 -16 4 -25 15
-16 16 -15 22 4 19 4 0 4 7 1 16 -5 12 -3 14 7 8 10 -6 12 -4 7 8 -4 11 -1 17
8 17 8 0 15 7 15 16 0 9 5 12 12 8 7 -5 9 -2 5 9 -4 12 -2 14 10 10 11 -4 14
-2 9 5 -4 7 -2 12 4 12 7 0 10 7 6 15 -3 8 -2 14 2 14 17 -3 35 1 29 7 -8 8
25 44 35 38 4 -3 5 1 2 9 -3 9 3 17 16 20 14 4 19 10 14 18 -5 8 -2 11 7 7 8
-3 20 1 27 8 8 9 9 14 2 14 -6 0 -9 4 -5 9 3 5 0 13 -6 17 -7 4 -9 3 -5 -4 4
-6 -1 -11 -11 -11 -10 0 -29 -1 -43 -2 -42 -2 -52 0 -44 14 5 7 1 6 -10 -3
-21 -16 -49 -23 -40 -9 3 5 -2 9 -11 9 -10 0 -13 -4 -8 -12 4 -7 -6 -5 -21 6
-16 10 -26 13 -22 8 3 -6 3 -13 -2 -16 -5 -3 -9 0 -9 7 0 7 -2 17 -3 22 -5 22
0 36 13 29 9 -6 9 -5 0 7 -12 15 -5 19 54 22 12 0 20 4 18 7 -2 3 6 12 17 19
18 11 20 11 15 -2 -4 -12 -1 -12 19 -3 13 6 24 15 24 19 0 5 5 5 11 1 6 -3 14
-2 18 4 3 6 19 13 35 16 16 3 34 10 40 16 13 13 19 13 11 1z m75 -111 c0 -5
-5 -10 -11 -10 -5 0 -7 5 -4 10 3 6 8 10 11 10 2 0 4 -4 4 -10z m-3574 -172
c4 -7 3 -8 -4 -4 -7 4 -12 2 -12 -5 0 -7 -3 -10 -6 -6 -6 5 3 27 11 27 2 0 7
-5 11 -12z m8 -254 c4 -10 1 -13 -7 -9 -6 4 -5 1 4 -7 9 -7 15 -21 13 -30 -1
-10 1 -18 6 -18 8 0 24 -59 20 -75 -1 -5 -3 -16 -3 -22 0 -10 -3 -10 -16 0
-12 9 -13 9 -7 -1 4 -7 0 -19 -8 -28 -9 -8 -16 -25 -16 -36 0 -13 -5 -18 -14
-15 -11 4 -13 1 -9 -10 4 -11 2 -14 -5 -9 -8 5 -10 1 -5 -10 4 -12 3 -15 -5
-10 -7 4 -12 1 -12 -8 0 -9 -4 -16 -10 -16 -5 0 -10 -5 -10 -11 0 -5 5 -7 12
-3 6 4 8 3 5 -4 -4 -5 -15 -8 -26 -5 -13 3 -18 12 -16 34 2 21 -2 29 -14 30
-10 0 -12 2 -3 6 6 2 9 10 5 16 -8 13 -14 42 -15 74 0 13 -5 20 -10 17 -6 -4
-7 2 -3 16 5 15 3 20 -3 16 -6 -3 -14 -1 -18 6 -4 7 -4 10 0 6 5 -4 21 6 36
22 15 16 31 26 34 23 3 -4 6 1 6 10 0 10 4 17 8 17 5 0 15 11 22 25 7 14 15
23 18 20 3 -2 -1 -13 -9 -22 -13 -16 -12 -17 4 -4 9 7 17 20 17 27 0 17 27 7
34 -12z m-189 -142 c-4 -16 -2 -21 5 -17 6 4 11 1 9 -6 -5 -41 2 -80 14 -73 9
5 9 4 0 -6 -9 -10 -10 -17 -2 -27 9 -10 8 -13 -2 -13 -11 0 -11 -2 1 -10 8 -5
11 -10 7 -10 -4 0 -3 -10 4 -21 6 -12 7 -19 1 -15 -6 4 -8 -2 -5 -14 7 -27
-14 -50 -45 -50 -14 0 -23 3 -19 6 7 8 -17 34 -31 34 -6 0 -8 14 -6 30 3 17 1
30 -3 30 -13 0 -14 42 -2 56 7 8 7 14 -1 19 -5 3 -10 20 -10 37 0 37 35 76 67
74 20 -1 23 -5 18 -24z m-321 -16 c-4 -11 0 -13 17 -9 14 4 20 2 15 -5 -3 -6
3 -13 14 -17 11 -4 17 -11 14 -17 -5 -8 -1 -9 10 -5 13 5 17 3 13 -7 -4 -11
-1 -13 10 -9 11 4 14 3 9 -6 -6 -8 -2 -11 10 -9 12 2 18 -2 16 -11 -2 -9 3
-11 14 -7 15 6 15 4 3 -11 -8 -9 -9 -14 -3 -10 14 8 38 -18 29 -33 -3 -5 1
-10 11 -10 13 0 14 -3 4 -15 -10 -12 -10 -15 1 -16 10 0 11 -2 1 -6 -6 -2 -9
-10 -5 -16 12 -19 12 -37 1 -37 -6 0 -7 -7 -4 -16 3 -8 2 -12 -4 -9 -6 3 -10
0 -10 -7 0 -11 -2 -11 -9 0 -7 11 -11 11 -24 -2 -11 -12 -17 -13 -20 -3 -4 9
-8 8 -16 -3 -6 -8 -11 -12 -12 -7 -2 10 -6 25 -9 35 -1 4 -2 10 -1 15 0 4 -4
7 -10 7 -5 0 -7 5 -4 10 3 6 2 10 -4 10 -5 0 -8 11 -6 25 1 14 -2 28 -8 32 -6
4 -7 1 -2 -7 5 -8 4 -11 -3 -7 -5 4 -8 17 -4 29 3 14 2 19 -6 14 -8 -5 -12 0
-12 13 0 12 -5 21 -11 21 -5 0 -7 5 -4 10 3 6 -2 10 -12 11 -11 0 -13 3 -5 6
10 4 9 9 -5 20 -11 9 -12 12 -3 8 10 -4 9 -2 -2 8 -21 16 -23 33 -6 43 7 4 8
3 4 -4 -4 -7 -3 -12 2 -12 6 0 12 7 16 15 3 8 8 15 10 15 3 0 3 -6 0 -14z
m2301 -336 c-3 -5 -1 -10 4 -10 14 0 14 -47 1 -55 -5 -3 -10 -1 -10 5 0 6 -4
9 -8 6 -4 -2 -8 5 -7 17 0 22 12 47 21 47 3 0 2 -4 -1 -10z m-1339 -899 c-3
-5 5 -12 18 -15 16 -4 23 -12 22 -28 -1 -13 5 -29 14 -36 11 -10 11 -11 1 -6
-11 5 -13 3 -8 -10 4 -9 3 -15 -1 -12 -4 2 -16 -2 -27 -10 -19 -14 -19 -14 1
-15 11 0 14 -3 6 -6 -10 -4 -9 -9 5 -20 10 -8 13 -12 7 -9 -7 3 -15 -1 -18
-10 -3 -8 -2 -12 4 -9 6 3 7 -1 4 -9 -3 -9 -10 -16 -16 -16 -5 0 -6 -4 -3 -10
3 -5 -1 -10 -10 -10 -11 0 -15 5 -11 16 3 8 2 12 -4 9 -13 -8 -13 1 1 27 6 12
7 18 1 14 -5 -3 -12 1 -16 9 -3 8 0 15 7 15 8 0 7 4 -3 10 -8 5 -11 12 -8 16
4 4 3 15 -3 25 -6 13 -6 19 1 19 5 0 10 -5 10 -11 0 -5 4 -8 9 -4 5 3 13 0 17
-6 5 -8 3 -9 -6 -4 -9 5 -11 4 -6 -3 11 -18 35 -14 32 4 -1 8 -9 20 -17 25 -8
5 -10 9 -5 9 5 0 2 8 -6 18 -12 15 -15 26 -9 47 0 3 6 5 12 5 5 0 8 -4 5 -9z
m-94 -61 c5 0 8 -6 5 -12 -2 -7 5 -23 16 -35 15 -17 17 -23 6 -23 -12 0 -11
-2 1 -10 13 -8 13 -10 0 -10 -9 0 -11 -3 -4 -10 15 -15 5 -70 -12 -70 -8 0
-14 -6 -14 -12 0 -8 -3 -9 -8 -3 -4 6 -16 15 -27 21 -13 7 -20 22 -20 42 0 25
-2 28 -14 19 -12 -10 -14 -9 -9 5 4 10 1 19 -8 22 -8 3 -14 10 -14 16 0 6 4 8
10 5 6 -3 7 1 4 9 -3 9 -11 16 -18 16 -6 0 -2 7 8 15 10 8 22 12 27 10 4 -3
11 0 15 6 5 8 3 9 -6 4 -9 -6 -11 -4 -6 4 5 7 14 10 22 7 9 -4 14 2 15 17 0
20 2 19 11 -5 5 -16 14 -28 20 -28z m-756 28 c4 -7 3 -8 -4 -4 -7 4 -12 3 -12
-3 0 -5 6 -11 13 -14 8 -3 6 -10 -8 -21 l-20 -16 20 7 c18 6 19 5 5 -12 -9
-11 -10 -16 -2 -11 6 4 12 3 12 -1 0 -5 -6 -15 -12 -22 -9 -10 -9 -12 -1 -7 8
4 11 -2 9 -21 -1 -16 2 -34 7 -40 6 -9 6 -13 -2 -13 -9 0 -9 -5 -1 -20 6 -11
8 -20 5 -20 -3 0 -1 -10 6 -22 10 -18 9 -20 -6 -14 -15 5 -16 4 -6 -8 10 -12
9 -14 -6 -11 -10 2 -21 4 -25 4 -5 1 -8 9 -8 19 0 13 -2 14 -9 3 -7 -11 -10
-9 -16 9 -6 18 -9 20 -16 9 -6 -10 -9 -11 -9 -1 0 6 -7 12 -15 12 -8 0 -15 5
-15 10 0 6 -5 10 -11 10 -7 0 -18 8 -26 18 -9 10 -12 11 -7 2 6 -13 5 -13 -7
-2 -12 11 -11 15 5 28 11 8 17 14 13 14 -4 0 -3 9 3 20 6 11 15 18 21 15 5 -4
9 1 9 9 0 9 6 13 14 10 9 -3 13 1 13 13 -1 9 5 18 13 18 8 1 14 6 13 13 -2 7
5 12 15 12 14 0 15 2 2 10 -13 8 -12 10 3 10 9 0 17 5 17 10 0 14 17 13 26 -2z
m602 -110 c-2 -7 3 -12 10 -10 6 1 12 -5 12 -13 0 -8 12 -26 26 -40 34 -34 19
-57 -20 -31 -23 15 -32 33 -27 60 1 4 -3 14 -9 20 -5 7 -7 16 -3 19 10 10 13
8 11 -5z m-908 -294 c5 -1 13 -2 16 -3 4 0 0 -9 -7 -18 -12 -15 -12 -16 6 -9
11 4 16 4 12 0 -4 -4 4 -22 18 -39 13 -18 21 -35 18 -39 -4 -3 1 -6 9 -6 19 0
30 -34 15 -49 -7 -7 -3 -8 12 -4 17 4 20 2 14 -13 -5 -13 -3 -16 9 -11 12 4
14 1 10 -15 -4 -16 -2 -19 9 -13 12 8 12 6 0 -8 -17 -22 -24 -21 -36 2 -40 75
-57 101 -66 101 -7 0 -6 6 2 17 10 11 10 14 2 9 -8 -4 -13 -1 -13 8 0 9 -7 16
-16 16 -9 0 -14 6 -11 13 3 7 -3 18 -12 24 -9 6 -17 23 -19 39 -1 22 1 25 8
14 5 -8 14 -16 20 -16z m166 -246 c5 -7 3 -8 -5 -3 -9 5 -9 1 1 -14 7 -12 19
-19 25 -16 7 2 12 -1 10 -8 -1 -7 6 -11 16 -11 9 1 17 -2 17 -7 0 -5 9 -9 20
-9 11 0 20 -4 20 -10 0 -5 5 -10 11 -10 5 0 7 5 4 11 -4 6 2 5 14 -3 12 -7 21
-16 21 -20 0 -13 75 -9 89 5 11 10 13 10 7 0 -6 -11 1 -15 24 -15 3 0 14 -9
25 -21 11 -11 14 -16 6 -12 -10 6 -12 4 -5 -6 15 -24 13 -38 -4 -32 -11 5 -13
3 -7 -7 5 -9 4 -11 -4 -6 -6 4 -18 3 -24 -3 -15 -11 -57 -11 -57 1 0 4 -12 8
-26 8 -14 0 -23 4 -19 10 3 6 -3 10 -14 10 -12 0 -21 5 -21 12 0 6 -3 8 -7 5
-3 -4 -14 0 -23 8 -9 8 -28 16 -43 17 -14 1 -23 6 -21 10 3 4 1 8 -5 8 -10 0
-27 38 -23 53 1 4 -5 7 -14 7 -8 0 -13 4 -10 9 4 5 1 11 -6 13 -13 5 -4 38 11
38 5 0 13 -5 17 -12z m4021 -273 c-15 -16 -22 -11 -13 10 3 9 10 13 16 10 6
-4 5 -11 -3 -20z m109 -340 c4 -8 12 -15 20 -15 8 0 14 -7 14 -16 0 -8 4 -13
8 -10 5 3 21 -9 37 -25 27 -29 27 -31 10 -47 -11 -11 -15 -12 -10 -3 5 9 -2 7
-18 -5 -15 -10 -27 -22 -27 -26 0 -4 -7 -5 -15 -2 -8 4 -15 1 -15 -7 0 -7 -3
-9 -7 -6 -3 4 -12 2 -20 -4 -7 -6 -14 -9 -14 -5 -5 23 -3 32 6 39 7 6 6 10 -3
14 -6 2 -9 10 -5 16 5 7 9 23 9 37 5 77 16 102 30 65z m-635 -648 c11 -16 -2
-47 -20 -47 -14 0 -14 -2 -1 -10 13 -9 13 -12 -3 -21 -15 -9 -16 -13 -5 -27
11 -13 11 -14 -1 -7 -10 6 -13 4 -9 -6 4 -9 -5 -21 -24 -32 -16 -9 -26 -11
-22 -5 5 7 2 9 -9 5 -9 -3 -24 1 -33 11 -16 16 -16 17 -1 20 10 2 15 8 11 13
-3 5 2 12 10 15 9 3 13 10 10 15 -3 5 0 9 5 9 6 0 11 5 11 11 0 7 8 18 18 26
11 10 12 12 2 8 -10 -4 -9 -2 3 8 9 8 17 19 17 25 0 13 31 4 41 -11z m-126
-38 c-4 -5 0 -9 7 -9 7 -1 4 -6 -8 -13 -12 -7 -19 -18 -16 -26 3 -8 0 -11 -7
-7 -10 6 -15 -5 -12 -26 0 -3 -7 -5 -17 -3 -9 2 -19 4 -22 4 -3 1 0 5 6 9 6 4
21 26 34 49 13 23 27 40 32 37 4 -3 6 -10 3 -15z m823 -4 c-3 -3 -9 2 -12 12
-6 14 -5 15 5 6 7 -7 10 -15 7 -18z m-488 -40 c0 -8 -4 -15 -10 -15 -5 0 -7 7
-4 15 4 8 8 15 10 15 2 0 4 -7 4 -15z m0 -35 c0 -5 -6 -10 -12 -11 -10 0 -10
-2 -1 -6 9 -3 10 -10 3 -22 -5 -10 -7 -20 -5 -23 3 -3 -2 -5 -10 -5 -8 0 -16
6 -19 14 -3 7 -1 13 3 13 5 0 8 8 6 18 -1 9 0 20 2 25 6 11 33 9 33 -3z m-120
-14 c0 -3 -4 -8 -10 -11 -5 -3 -10 -1 -10 4 0 6 5 11 10 11 6 0 10 -2 10 -4z
m5 -16 c13 11 14 10 9 -4 -3 -9 -10 -16 -16 -16 -5 0 -7 -4 -4 -8 2 -4 -4 -8
-15 -9 -14 -1 -18 4 -17 22 2 18 5 21 15 13 9 -7 17 -7 28 2z m-2672 -64 c8 5
8 3 0 -7 -15 -15 -17 -33 -4 -25 4 3 17 -1 27 -9 18 -15 18 -15 -1 -9 -13 4
-9 -2 10 -15 26 -18 24 -27 -7 -22 -4 0 -5 -8 -3 -19 2 -12 -1 -17 -9 -14 -6
2 -22 -9 -34 -26 -13 -17 -28 -28 -34 -24 -7 4 -8 3 -4 -4 4 -7 2 -12 -3 -12
-6 0 -11 -8 -11 -17 0 -15 -2 -16 -10 -3 -9 13 -10 13 -11 0 -1 -8 -1 -19 0
-24 1 -5 -5 -6 -14 -2 -11 4 -16 1 -14 -12 4 -43 -1 -60 -18 -57 -10 1 -17 8
-15 14 1 6 -5 11 -14 11 -10 0 -14 6 -11 14 4 10 -1 12 -16 9 -20 -4 -21 -3
-5 10 10 8 15 17 11 20 -3 4 0 7 7 7 7 0 11 3 7 6 -3 4 1 13 9 21 8 9 13 22
10 29 -3 9 1 14 12 14 13 0 14 2 3 9 -11 7 -10 11 5 20 14 8 15 11 4 11 -12 0
-11 3 3 11 9 5 17 21 17 34 0 13 5 27 10 30 6 4 7 12 3 18 -4 8 -1 7 9 -1 14
-11 19 -9 34 17 17 29 18 29 32 10 7 -10 19 -16 25 -13z m2748 -234 c-6 -11
-7 -23 -3 -28 4 -5 5 -8 3 -7 -2 2 -10 -5 -16 -14 -11 -15 -13 -15 -24 5 -8
16 -8 22 -1 22 6 0 8 5 4 12 -5 7 -2 9 9 5 9 -3 18 0 21 9 3 8 8 14 11 14 3 0
1 -8 -4 -18z m-2563 -44 c-3 -7 4 -17 15 -23 10 -5 26 -23 35 -40 10 -16 20
-31 25 -33 4 -2 7 -12 7 -22 0 -10 5 -20 11 -22 5 -2 11 -35 12 -74 2 -57 -1
-70 -12 -66 -10 4 -11 1 -3 -15 6 -11 7 -25 2 -33 -5 -8 -6 -19 -2 -25 3 -5 7
-20 8 -32 1 -18 -2 -21 -13 -12 -11 9 -12 8 -7 -5 5 -12 0 -16 -16 -16 -14 0
-20 -5 -17 -13 3 -8 -1 -14 -9 -14 -7 0 -10 5 -7 10 3 5 0 7 -8 5 -8 -3 -13
-11 -11 -17 1 -8 -2 -9 -10 -5 -22 14 -48 11 -49 -5 0 -14 -1 -14 -7 -1 -8 16
-42 26 -42 12 0 -5 -7 -9 -15 -9 -8 0 -12 4 -9 9 8 13 -10 10 -25 -4 -11 -10
-13 -10 -7 0 5 7 1 12 -11 13 -16 0 -16 1 2 8 11 5 23 7 28 4 4 -2 7 3 7 11 0
9 6 16 14 16 8 0 21 9 29 20 8 11 18 17 23 12 4 -4 3 0 -4 9 -10 13 -9 19 4
29 8 8 13 22 10 32 -3 14 -1 16 7 9 9 -7 13 2 14 32 1 23 7 43 12 45 6 2 8 8
5 14 -4 6 0 14 7 19 12 7 11 9 -1 9 -13 0 -13 2 -1 9 12 8 12 12 2 25 -11 12
-11 16 -1 16 9 0 9 4 -1 17 -12 15 -12 16 5 10 16 -6 17 -5 6 8 -7 8 -9 15 -5
15 4 0 3 6 -1 13 -5 6 -9 19 -8 27 1 8 2 21 3 28 0 6 4 12 7 12 3 0 4 -6 2
-12z m538 -23 c-3 -8 -1 -15 5 -15 6 0 7 -6 1 -16 -5 -9 -7 -25 -5 -34 3 -10
-1 -21 -9 -25 -7 -5 -10 -4 -5 0 4 5 -1 17 -10 28 -10 11 -12 17 -5 13 8 -5
11 -1 9 15 -2 13 1 29 7 36 15 17 19 16 12 -2z m1882 -217 c-2 -7 6 -13 16
-13 11 0 21 -8 23 -20 9 -49 10 -65 2 -65 -4 0 -6 -8 -4 -19 3 -15 -1 -18 -18
-13 -12 3 -16 7 -9 10 6 2 12 8 12 13 0 4 -7 6 -15 2 -9 -3 -15 -2 -14 3 4 22
-2 44 -16 58 -22 22 -22 23 0 40 25 19 26 19 23 4z m98 -130 c4 -7 3 -8 -4 -4
-8 5 -10 2 -6 -8 3 -9 10 -14 14 -11 5 3 10 0 12 -7 6 -16 -20 -43 -43 -44
-13 -1 -16 6 -14 32 5 51 24 70 41 42z m-1876 -409 c0 -10 5 -19 10 -19 11 0
14 -43 4 -53 -3 -3 -12 -3 -20 0 -12 4 -12 8 -2 21 11 13 11 14 -1 8 -9 -6
-12 -5 -9 5 3 8 1 22 -4 32 -6 11 -5 17 2 17 6 0 8 5 4 12 -4 7 -3 8 4 4 7 -4
12 -16 12 -27z"/>
<path d="M6750 6759 c0 -5 5 -7 10 -4 6 3 10 8 10 11 0 2 -4 4 -10 4 -5 0 -10
-5 -10 -11z"/>
<path d="M3130 6239 c0 -5 5 -7 10 -4 6 3 10 8 10 11 0 2 -4 4 -10 4 -5 0 -10
-5 -10 -11z"/>
<path d="M3186 5993 c-6 -14 -5 -15 5 -6 7 7 10 15 7 18 -3 3 -9 -2 -12 -12z"/>
<path d="M3865 2210 c-3 -5 -1 -10 4 -10 6 0 11 5 11 10 0 6 -2 10 -4 10 -3 0
-8 -4 -11 -10z"/>
<path d="M6412 9329 c6 -28 38 -34 38 -7 0 6 -3 8 -7 5 -3 -4 -12 -2 -20 5
-11 9 -13 8 -11 -3z"/>
<path d="M8240 7786 c0 -2 8 -10 18 -17 15 -13 16 -12 3 4 -13 16 -21 21 -21
13z"/>
<path d="M2690 6919 c0 -5 5 -7 10 -4 6 3 10 8 10 11 0 2 -4 4 -10 4 -5 0 -10
-5 -10 -11z"/>
<path d="M1556 6645 c-3 -8 -1 -15 4 -15 6 0 10 7 10 15 0 8 -2 15 -4 15 -2 0
-6 -7 -10 -15z"/>
<path d="M1597 6642 c-9 -2 -15 -8 -11 -13 3 -5 10 -7 15 -4 5 4 9 1 9 -5 0
-7 6 -8 19 -1 10 6 21 7 25 4 3 -3 6 0 6 9 0 8 -7 15 -15 15 -8 0 -15 -5 -15
-11 0 -8 -3 -8 -8 -1 -4 6 -15 9 -25 7z"/>
<path d="M7202 6592 c-8 -6 -2 -9 18 -9 20 0 26 3 18 9 -7 4 -15 8 -18 8 -3 0
-11 -4 -18 -8z"/>
<path d="M7790 3111 c0 -5 7 -12 16 -15 14 -5 15 -4 4 9 -14 17 -20 19 -20 6z"/>
<path d="M7075 2900 c-3 -5 -1 -10 4 -10 6 0 11 5 11 10 0 6 -2 10 -4 10 -3 0
-8 -4 -11 -10z"/>
</g>
</svg>
